<mxfile host="65bd71144e">
    <diagram id="va0NmJ0Ubud1XBaJ2q0m" name="ページ1">
        <mxGraphModel dx="1055" dy="787" grid="1" gridSize="10" guides="1" tooltips="1" connect="1" arrows="1" fold="1" page="1" pageScale="1" pageWidth="1654" pageHeight="1169" math="0" shadow="0">
            <root>
                <mxCell id="0"/>
                <mxCell id="1" parent="0"/>
                <mxCell id="17" value="" style="whiteSpace=wrap;html=1;aspect=fixed;" vertex="1" parent="1">
                    <mxGeometry x="136" y="100" width="220" height="220" as="geometry"/>
                </mxCell>
                <mxCell id="2" value="" style="shape=image;imageAspect=0;aspect=fixed;verticalLabelPosition=bottom;verticalAlign=top;image=data:image/jpeg,/9j/4AAQSkZJRgABAQAASABIAAD/4QBwRXhpZgAATU0AKgAAAAgABAEGAAMAAAABAAIAAAESAAMAAAABAAEAAAEoAAMAAAABAAIAAIdpAAQAAAABAAAAPgAAAAAAA6ABAAMAAAABAAEAAKACAAQAAAABAAABc6ADAAQAAAABAAABjAAAAAD/4QkhaHR0cDovL25zLmFkb2JlLmNvbS94YXAvMS4wLwA8P3hwYWNrZXQgYmVnaW49Iu+7vyIgaWQ9Ilc1TTBNcENlaGlIenJlU3pOVGN6a2M5ZCI/PiA8eDp4bXBtZXRhIHhtbG5zOng9ImFkb2JlOm5zOm1ldGEvIiB4OnhtcHRrPSJYTVAgQ29yZSA2LjAuMCI+IDxyZGY6UkRGIHhtbG5zOnJkZj0iaHR0cDovL3d3dy53My5vcmcvMTk5OS8wMi8yMi1yZGYtc3ludGF4LW5zIyI+IDxyZGY6RGVzY3JpcHRpb24gcmRmOmFib3V0PSIiLz4gPC9yZGY6UkRGPiA8L3g6eG1wbWV0YT4gICAgICAgICAgICAgICAgICAgICAgICAgICAgICAgICAgICAgICAgICAgICAgICAgICAgICAgICAgICAgICAgICAgICAgICAgICAgICAgICAgICAgICAgICAgICAgICAgICAgICAgICAgICAgICAgICAgICAgICAgICAgICAgICAgICAgICAgICAgICAgICAgICAgICAgICAgICAgICAgICAgICAgICAgICAgICAgICAgICAgICAgICAgICAgICAgICAgICAgICAgICAgICAgICAgICAgICAgICAgICAgICAgICAgICAgICAgICAgICAgICAgICAgICAgICAgICAgICAgICAgICAgICAgICAgICAgICAgICAgICAgICAgICAgICAgICAgICAgICAgICAgICAgICAgICAgICAgICAgICAgICAgICAgICAgICAgICAgICAgICAgICAgICAgICAgICAgICAgICAgICAgICAgICAgICAgICAgICAgICAgICAgICAgICAgICAgICAgICAgICAgICAgICAgICAgICAgICAgICAgICAgICAgICAgICAgICAgICAgICAgICAgICAgICAgICAgICAgICAgICAgICAgICAgICAgICAgICAgICAgICAgICAgICAgICAgICAgICAgICAgICAgICAgICAgICAgICAgICAgICAgICAgICAgICAgICAgICAgICAgICAgICAgICAgICAgICAgICAgICAgICAgICAgICAgICAgICAgICAgICAgICAgICAgICAgICAgICAgICAgICAgICAgICAgICAgICAgICAgICAgICAgICAgICAgICAgICAgICAgICAgICAgICAgICAgICAgICAgICAgICAgICAgICAgICAgICAgICAgICAgICAgICAgICAgICAgICAgICAgICAgICAgICAgICAgICAgICAgICAgICAgICAgICAgICAgICAgICAgICAgICAgICAgICAgICAgICAgICAgICAgICAgICAgICAgICAgICAgICAgICAgICAgICAgICAgICAgICAgICAgICAgICAgICAgICAgICAgICAgICAgICAgICAgICAgICAgICAgICAgICAgICAgICAgICAgICAgICAgICAgICAgICAgICAgICAgICAgICAgICAgICAgICAgICAgICAgICAgICAgICAgICAgICAgICAgICAgICAgICAgICAgICAgICAgICAgICAgICAgICAgICAgICAgICAgICAgICAgICAgICAgICAgICAgICAgICAgICAgICAgICAgICAgICAgICAgICAgICAgICAgICAgICAgICAgICAgICAgICAgICAgICAgICAgICAgICAgICAgICAgICAgICAgICAgICAgICAgICAgICAgICAgICAgICAgICAgICAgICAgICAgICAgICAgICAgICAgICAgICAgICAgICAgICAgICAgICAgICAgICAgICAgICAgICAgICAgICAgICAgICAgICAgICAgICAgICAgICAgICAgICAgICAgICAgICAgICAgICAgICAgICAgICAgICAgICAgICAgICAgICAgICAgICAgICAgICAgICAgICAgICAgICAgICAgICAgICAgICAgICAgICAgICAgICAgICAgICAgICAgICAgICAgICAgICAgICAgICAgICAgICAgICAgICAgICAgICAgICAgICAgICAgICAgICAgICAgICAgICAgICAgICAgICAgICAgICAgICAgICAgICAgICAgICAgICAgICAgICAgICAgICAgICAgICAgICAgICAgICAgICAgICAgICAgICAgICAgICAgICAgICAgICAgICAgICAgICAgICAgICAgICAgICAgICAgICAgICAgICAgICAgICAgICAgICAgICAgICAgICAgICAgICAgICAgICAgICAgICAgICAgICAgICAgICAgICAgICAgICAgICAgICAgICAgICAgICAgICAgICAgICAgICAgICAgICAgICAgICAgICAgICAgICAgICAgICAgICAgICAgICAgICAgICAgICAgICAgICAgICAgICAgICAgICAgICAgICAgICAgICAgICAgICAgICAgICAgICAgICAgICAgICAgICAgICAgICAgICAgICAgICAgICAgICAgICAgICAgICAgICAgICAgICAgICAgICAgICAgICAgICAgICAgICAgICAgICAgICAgICAgICAgICAgICAgICAgICAgICAgICAgICAgICAgICAgICAgICAgICAgICAgICAgICAgICAgICAgICAgICAgICAgICAgICAgICAgICAgICAgICAgICAgICAgICAgICAgICAgICAgICAgICAgICAgICAgICAgICAgICAgICAgICAgICAgICAgICAgICAgICAgICAgICAgICAgICAgICAgICAgICAgICAgICAgICAgICAgICAgICAgICAgICAgICAgICAgICAgICAgICAgICAgICAgICAgICAgICAgICAgICAgICAgICAgICAgICAgICAgICAgICAgICAgICAgICAgICAgICAgICAgICAgICAgICAgICAgICAgICAgICAgICAgICAgICAgICAgICAgICAgICAgICAgICAgICAgICAgICAgICAgICAgICAgICAgICAgICAgICAgICAgICAgICA8P3hwYWNrZXQgZW5kPSJ3Ij8+AP/AABEIAYwBcwMBIgACEQEDEQH/xAAfAAABBQEBAQEBAQAAAAAAAAAAAQIDBAUGBwgJCgv/xAC1EAACAQMDAgQDBQUEBAAAAX0BAgMABBEFEiExQQYTUWEHInEUMoGRoQgjQrHBFVLR8CQzYnKCCQoWFxgZGiUmJygpKjQ1Njc4OTpDREVGR0hJSlNUVVZXWFlaY2RlZmdoaWpzdHV2d3h5eoOEhYaHiImKkpOUlZaXmJmaoqOkpaanqKmqsrO0tba3uLm6wsPExcbHyMnK0tPU1dbX2Nna4eLj5OXm5+jp6vHy8/T19vf4+fr/xAAfAQADAQEBAQEBAQEBAAAAAAAAAQIDBAUGBwgJCgv/xAC1EQACAQIEBAMEBwUEBAABAncAAQIDEQQFITEGEkFRB2FxEyIygQgUQpGhscEJIzNS8BVictEKFiQ04SXxFxgZGiYnKCkqNTY3ODk6Q0RFRkdISUpTVFVWV1hZWmNkZWZnaGlqc3R1dnd4eXqCg4SFhoeIiYqSk5SVlpeYmZqio6Slpqeoqaqys7S1tre4ubrCw8TFxsfIycrS09TV1tfY2dri4+Tl5ufo6ery8/T19vf4+fr/2wBDAAEBAQEBAQIBAQIDAgICAwQDAwMDBAYEBAQEBAYHBgYGBgYGBwcHBwcHBwcICAgICAgJCQkJCQsLCwsLCwsLCwv/2wBDAQICAgMDAwUDAwULCAYICwsLCwsLCwsLCwsLCwsLCwsLCwsLCwsLCwsLCwsLCwsLCwsLCwsLCwsLCwsLCwsLCwv/3QAEABj/2gAMAwEAAhEDEQA/AP72KKKKACiiigAooooAKKKKACiiigAooooAKKKKACiiigAooooAKKKKACiiigAooooAKKKKACiiigAooooAKKKKACiiigAooooAKKKKACiiigAooooAKKKKACiiigAooooA/9D+9iiiigAooooAKKKKACiiigAooooAKKKKACiiigAooooAKKUY71XuL2xs4TPeTJEnI3OwUA/U+lNK7stxSairtllQD1pQA5JTnnHFfmH+1f8A8FWP2Zf2YNLubZ9Uj1zXLZtpsbdsHcMHryO+evt1r8CPGf8AwW+/aR+Jt3e6n4ImTQrMTYhhAWRgpAIBOOvrX0mWcK4/HWUIcq7s8DMeJcFg3acr+h/ZoY29D+VJ5beh/Kv4hE/4K3ftlhcSeIAT6iNR/Q0v/D279sj/AKD/AP44v/xNfRLw2zD+aP3nivj/AAN/gZ/b35b56Ggxn0NfxDf8Pb/2x/8AoPf+OL/8TSf8Pb/2yP8AoP8A/ji//E0l4bZh/NH7xS4/wXSDP7edh9D+VHlt3B/Kv4hv+Ht37ZH/AEH/APxxf/iaD/wVv/bH/wCg/wD+OL/8TT/4htmH80fvGuP8Db4Gf287D6H8qRh5S7pBgep4r+If/h7d+2R/0H//ABxf/ia6jwV/wVj/AGwL/wAU2Vpda6rRvJ8wdFwQBnnion4c5hFX5oiXiDl97Siz+1MLjkjrUVfij+z/AP8ABVKzv5ItD+Mce1pGI+1RjCj8K/XTwN8TfAfxI0tdX8G6lHeQsAeOCM+1fIZhkuLwcmqsHbv0PpcBnWExcb0pr06ndUU7ggFSMU2vKPWCiiigAooooAKKKKACiiigAooooAKKKKACiiigAooooA//0f72KKKKACiiigAooooAKKKKACiiigAooooAKKKgu7yy0+3a6vpUhjQEs0jbVAHU59qaTeyE2kryZaUcZ4qtcXdna273VzIsUUYLM7NhVA65J4r8yP2qP+Cr/wCzJ+zHaNanU4/EGptuRYLFwwjcHHznJxj6Cv5Zv2wv+CxX7SP7Rt3Nonh2+OgaMCyoloWV3Qnoxz378c19NlXCeOxrT5eWPdnz2acTYPCLl5ry8j+pn9qv/gq7+zP+zHZNajUo9f1bcU+zWbglG7bsZHGfWv5dP2v/APgsf+0X+0O8+heH7gaFpDu3kpbnEyqOPmYHPOM/j6V+Qt7rOrazqMmparcyXM8/LvI24nA96zZhmUtX6hk3CWDwVpyjzT7v9D89zXibE4q8Yu0fI09e1/V/Ed42pa3O91cPgtJIxZifUkmu8+G9wyRvajGHbd+IGK8qf7temfDbLTS/7HT8a+woqz5YnylV3Tk9z18nNJSmkr1Iqyszz+Zi4NJTg5AxSE5OaLC1Eoop7JjntRoO9hldD4VkSHxFaSMcASDrXPVp6KM6tb/9dBUVFoG71Pv2ynJgRgeor2H4a/Gvx98K9Xi1bwvfSRGI5CFztJ+ma8S01mNnEw/u1okErnvXj4jDU6nuzV15nZQrul70HZ+R+8f7PH/BVawvXg8P/Gq28qZvl+1xH93+P6Zr9gPAvxL8C/ErTl1Twbfx3cZAJ2nJGfX0r+JcKQOK9e+G3xs+Jnwov4dR8FarPaeWdxjDfI31FfB5xwLhq154N8svwPtMr44xFFRhiVzR/E/tFwO9Mr8Sf2f/APgqpZT+To3xogEcj4UTxdM9Mt6Zr9d/AfxM8GfEbSU1jwtqEF3DIAwMbg4B6ZGeK/McyyTGYKTVaDt3P0rAZzhMWl7Kevbqd/RTiBwMim15J6oUUUUAFFFFABRRRQAUUUUAFFFFABRRRQB//9L+9iiiigAooooAKKKKACiiigAooooAKKKKAHKcHPsa/kl/4Lg/tsfHn4bfHNfgz8P9am0jS302N50gypk8wnOTn27V/WxX8N//AAX25/bVP/YLg/8AQnr7HgqhTqY9KpG+jPleMa8qeAbg7O6PxE1HU9U1e5a71W5luZGJJaRtxyapfSiiv26MbKy2Px+U23eWo5WKncKC5IxTaKYr3YhGRivTfhuNk82O9eZ16b8Of9fNW+Hd52M6+kT1wnJzSUUV6b3POCiiiqC4U4uSMU2igArW0If8Te3/AN8Vk1r6F/yFoP8AeFJrQaPu3TDssIQB/CKv+Y3+f/1VQ0//AI8Yf9wVcryJPVmyjcf5jf5//VR5jUyipQ1o7i5Od1et/DP42fEf4WalFdeENUmtAHBKqSQefTpz0+leR1Zs13XKe3P5VliaNOrBxqq6sbU69SE+eErM/sp/Zx8Y6p8QPhDofizXGDXF3ZxSysBjLOATxz3Ne6Mke3cp5r5h/Y6Bb9n/AMPwD+GyhA/BRX080QRM96/m7MIKOJqJd2f0Ll0nLDU2+yIaKKK4ztCiiigAooooAKKKKACiiigAooooA//T/vYooooAKKKKACinoM81DPc29vC09w6xooyWPAAFNRb0QpyUVzSZMOFJ60zzYz82Qfxr8yf2rv8Agqn+zR+zBps0U2qQ67qsbMjWdnIC8bDoGHODz61+eXwZ/wCC0njD4irceLr3TFTSpLh444g3zqqYwPrjr7172E4XzHEw9pThZeZ4mM4iwWGaVSR/SMq7kyvOe9KEOcjmvyx8B/8ABV34ReLZ1s9bs5dOl4BZz8reuOBX2Z4T/ao+CHjXamg+IrSWRiBs3hTk9sE81yYjJsZQdqlJnRh86wdf+HVR9AsjZ6UxgyjpVax1a21CIXFnKk0Z/iQgj9KvuSwBavMaadmrHqRs1dNWIFORmv4c/wDgvso/4bSLf9QuD/0Jq/uMXpX8Ov8AwX2/5PQP/YLg/wDQmr7XgT/kYfJnx3G3+4fNH4ZUUUV+1pn5G9XoFFFFIpBXpvw5/wBfNXmVem/Dn/XzV0YVe+Z4j4D1uiiivUPOCiiigAooooAK19C/5C0H+8KyK19C/wCQtB/vChjR926f/wAeMP8AuCrlU9P/AOPGH/cFXK8Z/EzVMKKKKZQVbsf+Ppfx/lVSrdj/AMfS/j/Kpn8LGj+v79jj/kg+g/8AXnF/6CK+pmUMNpr5Y/Y5IHwG0In/AJ84v/QRX1E0qqu4so+vFfzfmqvi6nqz+iMtdsJT9EHkr7/5/ClEKik8+IAM7ABunPWvLvHfxv8AhV8NF3+ONcs9NTGS08oQD8+P1rhhSnKXLGLZ1Trwgrzdj1Py0qFhCrbC3zHoK/L34v8A/BXT9kf4XwvJpmvwa88Qy6WhyQf1r8ofjN/wcUaPdWUtv8IfD81tcR5+e5+ZWweuOO1e1g+G8fif4dJ28zzK+f4Gle9RO3Y/qiMQx3pwhXv/AJ/Svwp/ZR/4K32fjnRNKHxctfs1zqKhjMuFjUEn07Y96/ZvwJ8T/BfxH0xtV8J6hBeQjqY3DYGeM4PFc2YZNi8G/wB9B27mmBzjC4tXpTXpc7vyV9/8/hTXiVVLCpEkRl3KwI9aJSDGSK8o9Qp0UUUAFFFFAH//1P72KKKKACnL1x3PA/Gm0bygLL1FAXtqfmx+2R/wU/8A2ef2PpZ9A8SXseq63H+7NjaMJZYpDjAkUZ24ByQcHFfyu/tbf8Fjv2lf2iri40Tw9ef8I9o4LJGtpujkaMnjPOMkdeK+d/8AgqTczD9v34oJn5f7ace+AiY574FfATSFSJAMiv2zhvhjB0aFPFTV5tJ6n5Jnmf4mpWnRTtFOxoa5rer+IdQl1TXruW8uZcbnlbcSQAM/Xiv0Z/ZRQJ8ImfP/AC+S/wDstfmSWZ5NxFfpt+yof+LQMP8Ap9l/9lr7RdlsfGYibm9Xc+iVlkTlDg+1aNlr+u6VKLnTLuWCQHOUODWVRTnTjNWkrnPCXs3ofQ3g/wDae+N3g2QTaZ4gujg52vIxX8gQK+0vAv8AwVb+OHh77Laa9b2t9BDkSE5DMDnH8WeOO/8AhX5V4zHimImDXlYrIsDXb9pRTb62PTw+c4uj/DqtL1P6N/BX/BWT4U6oYLLxfp9zbzyHDSx4Ma9TySa/mL/4LQ/Fnwz8X/2qY/FnhR99rJp8UfJGQRlv616KkzbihHGDX5mftPMrfEJQTlvJU/0xXJgeGMFgK3t8OnzP7kduK4ixmMo+xru6PnGiiivfPJ9AooooGgr034c/6+avMq9N+HP+vmrpwvxmeI+A9booor0zzgooooAKKKKACtfQv+QtB/vCsitfQv8AkLQf7woY0fdun/8AHjD/ALgq5VPT/wDjxh/3BVyvHe7NOwUUUUFhVqzZFuVMjbBzzjOOKq0+P7/50pK6aGk3sfth4M/4K8fss/s4/B/R/C/iGS6vr+C1SOSO2UPh14/D8a+LvjT/AMHEuqwtInwT0FPmO0fbgx2jA5+U45/H047fzafGie4/4T26y7EKxwD0xXl5JkGW718ouD8u9pKrUjeTd7PY+w/1nx3sI0YytZW0P1W+NX/BYH9rz4xSs8et/wBiBwARYs6FenTsM47etfAPjD44/F/x20g8YeI7/URIcsJ5S4P55ryYIAc1ITntXr0ctw1DSnTSXoeTiMfiKrvOo38xTLOVKs5OevSq7IBG2T/C38qlqKf/AFEn+638q9GHuq0dDgfc/YD4W7W+HOinP3bVQMe/NfTfw0+N/wASvhPqkOreENVnt/KOfLDEo3+8K+X/AITH/i22i/8AXqlekocKKKtGlVjyVY3XmZQrSpS5qbsz97fgH/wVPtdQMGi/GO0WKd8L9ogPyk9Mn+tfsT4N8b+F/iB4dj8ReELyO9s5OA8TBgG7g47j0r+IxXKSI68FWB/Kv6iv+CYRZf2VbIMxYtqF5knk8vn+tfk3GfDmGwdJYrD6XdrH6bwfxBicVUeGxGyWjP0Mooor84P0QKKKKAP/1f72KKKKACjG4EH0NFKO/wBD/KmtxS2Z/nT/APBU9Qn7ffxRI/6Dcn/oCV8AB2MYU1+gX/BVDj9vv4oj/qNSf+gJX59KcqK/ozJ/9ypL+6vyR+D5pK2Krp/zP8wY4Ga/Tb9lJQfg4z9/tkv/ALLX5kP92v03/ZR/5I23/X5L/wCy16iPKqKzufQdFFFWjmlq7jg5AxS+Y3+f/wBVMoo8xWRIpy2a/MX9psD/AIWWGH/PH+tfpynWvzG/aZ/5KOP+uP8AWk0awdj59oooqDf0CiiigaCvTfhz/r5q8yr034c/6+aurC/GZ4j4D1uiiivSPOCiiigAooooAK19C/5C0H+8KyK19C/5C0H+8KGNH3bp/wDx4w/7gq5VPT/+PGH/AHBVyvHe7NOwUUUUFhT4/vUynx/eoZcNz8j/AIzMT4/u19GNeZgYGK9K+M3/ACUC8/3jXm1Z+Z0psKKKKB3Cop/9RJ/ut/Kpain/ANRJ/ut/KmiWfr78JlH/AArTRW/6dUr0IOQMV598Jv8AkmWi/wDXqld/TlboctR2YryEKT6c1/Uj/wAExm/4xasl9NTvR+TV/LTLxEx9jX9Sv/BMb/k16zH/AFE77/0KvheP4/8ACfD/ABfoz7TgRt41+h+h9FFFfi5+xhRRRQB//9b+9iiiigApR3+h/lSUo7/Q/wAqa3Jlsz/Oq/4Kof8AJ/XxRP8A1G5P/QEr8+lGFFfoL/wVQ4/b7+KI/wCo1J/6Alfn0pJUV/RmT/7nS9F+SPwjNGvrde/836iP92v04/ZRGPg0x/6fJf8A2WvzHf7tfpx+yic/Bph/0+S/+y16iPLrX2R9BUUUVZzXtoFFFFBI+P71fmP+0z/yUcf9cf61+nEf3q/Mf9pn/ko6/wDXH+tDNKZ8+UUUVmdN0tAooooBBXpvw5/181eZV6b8Of8AXzV1YX4zPEfAet0UUV6R5wUUUUAFFFFABWvoX/IWg/3hWRWvoX/IWg/3hQxo+7dP/wCPGH/cFXKp6f8A8eMP+4KuV473Zp2CiiigsKfH96mU+P71DLgfkZ8ZT/xcS6X1Y15vXo/xl/5KNc/7zV5xWZ0oKKKKACop/wDUSf7rfyqWop/9RJ/ut/KgT2P1++E3/JMtF/69Urv64D4Tf8ky0X/r1Su/q4x7nJOOt2Ml/wBU30Nf1K/8Exv+TXbM/wDUTvv/AEKv5aZv9U30Nf1Lf8EyP+TXLP8A7Cl9/wChV8N4gy/2CCX836M+24Ft9ddu36o/Q6iiivxU/YgooooA/9f+9iiiigApR3+h/lSUo7/Q/wAqa3Jlsz/Oq/4Kof8AJ/XxRP8A1G5P/QEr8+lGFFfoL/wVQ4/b7+KI/wCo1J/6Alfn0pJUV/RmT/7nS9F+SPwfNn/tVdPu/wAxH+7X6b/so/8AJG2/6/Jf/Za/Mh/u1+nH7KIx8GmP/T5L/wCy16iPKqO259BUUUVZzy1dwooooEPj+9X5j/tM/wDJR1/64/1r9OI/vV+Y/wC0z/yUdf8Arj/WhmtM+fKKKKzNZ7oKKKKC0Fem/Dn/AF81eZV6b8Of9fNXVhfjM8R8B63RRRXpHnBRRRQAUUUUAFa+hf8AIWg/3hWRWvoX/IWg/wB4UMaPu3T/APjxh/3BVyqen/8AHjD/ALgq5XjvdmnYKKKKCwp8f3qZT4/vUMuB+Rfxl/5KNc/7zV5xXo/xl/5KNc/7zV5xWZ0oKKKKACop/wDUSf7rfyqWop/9RJ/ut/KhEyvY/X74Tf8AJMtF/wCvVK7+uA+E3/JMtF/69Urv60voctTQjm/1TfQ1/Ut/wTI/5Ncs/wDsKX3/AKFX8tM3+qb6Gv6lv+CZH/Jrln/2FL7/ANCr4HxA/wCRfD/F+h9pwH/vr9P1R+h1FFFfjJ+yBRRRQB//0P72KKKKAClHf6H+VJSjv9D/ACprcmWzP86r/gqh/wAn9fFE/wDUbk/9ASvz6UYUV+gv/BVDj9vv4oj/AKjUn/oCV+fSklRX9GZP/udL0X5I/CM0a+t17/zfqI/3a/Tn9lL/AJIyf+vyX/2WvzGf7tfpx+yic/Bph/0+S/8Asteojyq6ufQVFFFWc97aMKKKKCR8f3q/Mf8AaZ/5KOv/AFx/rX6cR/er8xv2mf8Ako4/64/1oZpB2Pn2iiiszdq7TCiiigpBXpvw5/181eZV6b8Of9fNXVhfjM8R8B63RRRXpHnBRRRQAUUUUAFa+hf8haD/AHhWRWvoX/IWg/3hQxo+7dP/AOPGH/cFXKp6f/x4w/7gq5XjvdmnYKKKKCwp8f3qZT4/vUMuB+Rfxl/5KNc/7zV5xXo/xl/5KNc/7zV5xWZ0oKKKKACo5jiCQ/7LfyqSop/9RJ/ut/KmgZ+v3wn5+GWi/wDXqld/XAfCb/kmWi/9eqV39Wzlq76kc3+qb6Gv6lv+CZH/ACa5Z/8AYUvv/Qq/lpm/1TfQ1/Ut/wAEyP8Ak1yz/wCwpff+hV8Dx/8A8i+H+L9D7TgW31127fqj9DqKKK/GT9iCiiigD//R/vYooooAKUd/of5UlKO/0P8AKmtyZbM/zqv+CqH/ACf18UT/ANRuT/0BK/PpRhRX6C/8FUOP2+/iiP8AqNSf+gJX59KSVFf0Zk/+50vRfkj8HzZ/7VXT7v8AMR/u1+m/7KP/ACRtv+vyX/2WvzIf7tfpx+yiMfBpj/0+S/8AsteojyqjtufQVFFFWc8tXcKKKKBD4/vV+Y/7TP8AyUcf9cf61+nEf3q/Mb9pn/ko4/64/wBaGaQt1Pn2iiiszo9AooooGgr034c/6+avMq9N+HP+vmrqwvxmeI+A9booor0jzgooooAKKKKACtfQv+QtB/vCsitfQv8AkLQf7woY0fdun/8AHjD/ALgq5VPT/wDjxh/3BVyvHe7NOwUUUUFhT4/vUynx/eoZcD8i/jL/AMlGuf8AeavOK9H+Mv8AyUa5/wB5q84rM6UFFFFABUU/+ok/3W/lUtRT/wCok/3W/lTQM/X74Tf8ky0X/r1Su/rgPhN/yTLRf+vVK7+rZyVdyOb/AFTfQ1/Ut/wTI/5Ncs/+wpff+hV/LTN/qm+hr+pb/gmR/wAmuWf/AGFL7/0KvgeP/wDkXw/xfofZ8B/76/T9UfodRRRX4yfsgUUUUAf/0v72KKKKAClHf6H+VJSjv9D/ACprcmWzP86r/gqh/wAn9fFE/wDUbk/9ASvz6UYUV+gv/BVDj9vv4oj/AKjUn/oCV+fSklRX9GZP/udL0X5I/CM0a+t17/zfqI/3a/Tn9lL/AJIyf+vyX/2WvzGf7tfpx+yic/Bph/0+S/8Asteojyq6ufQVFFFWc97aMKKKKCR8f3q/Mf8AaZ/5KOP+uP8AWv04j+9X5j/tM/8AJR1/64/1oZpTPnyiiiszpuloFFFFAIK9N+HP+vmrzKvTfhz/AK+aurC/GZ4j4D1uiiivSPOCiiigAooooAK19C/5C0H+8KyK19C/5C0H+8KGNH3bp/8Ax4w/7gq5VPT/APjxh/3BVyvHe7NOwUUUUFhT4/vUynx/eoZcD8i/jL/yUa5/3mrzivR/jL/yUa5/3mrziszpQUUUUAFRT/6iT/db+VS1FP8A6iT/AHW/lTQM/X74Tf8AJMtF/wCvVK7+uA+E3/JMtF/69Urv6tnLU3I5v9U30Nf1Lf8ABMj/AJNcs/8AsKX3/oVfy0zf6pvoa/qW/wCCZH/Jrln/ANhS+/8AQq+B4/8A+RfD/F+h9rwK19ddu36o/Q6iiivxk/YQooooA//T/vYooooAKUd/of5UlKO/0P8AKmtyZbM/zqv+CqH/ACf18UT/ANRuT/0BK/PpRhRX6C/8FUOP2+/iiP8AqNSf+gJX59KSVFf0Zk/+50vRfkj8HzZ/7VXT7v8AMR/u1+m/7KP/ACRtv+vyX/2WvzIf7tfpx+yiMfBpj/0+S/8AsteojyqjtufQVFFFWc8tXcKKKKBD4/vV+Y/7TP8AyUdf+uP9a/TiP71fmP8AtM/8lHX/AK4/1oZrTPnyiiiszWe6CiiigtBXpvw5/wBfNXmVem/Dn/XzV1YX4zPEfAet0UUV6R5wUUUUAFFFFABWvoX/ACFoP94VkVr6F/yFoP8AeFDGj7t0/wD48Yf9wVcqnp//AB4w/wC4KuV473Zp2CiiigsKfH96mU+P71DLgfkX8Zf+SjXP+81ecV6P8Zf+SjXP+81ecVmdKCiiigAqKf8A1En+638qlqKf/USf7rfypoGfr98Jv+SZaL/16pXf1wHwm/5Jlov/AF6pXf1bOSruRzf6pvoa/qW/4Jkf8muWf/YUvv8A0Kv5aZv9U30Nf1Lf8EyP+TXLP/sKX3/oVfA8f/8AIvh/i/Q+z4D/AN9fp+qP0Oooor8ZP2QKKKKAP//U/vYooooAKUd/of5UlKO/0P8AKmtyZbM/zqv+CqH/ACf18UT/ANRuT/0BK/PpRhRX6C/8FUOP2+/iiP8AqNSf+gJX59KSVFf0Zk/+50vRfkj8IzRr63Xv/N+oj/dr9Of2Uv8AkjJ/6/Jf/Za/MZ/u1+nH7KJz8GmH/T5L/wCy16iPKrq59BUUUVZz3towooooJHx/er8x/wBpn/ko6/8AXH+tfpxH96vzG/aZ/wCSjj/rj/WhmkHY+faKKKzN2rtMKKKKCkFem/Dn/XzV5lXpvw5/181dWF+MzxHwHrdFFFekecFFFFABRRRQAVr6F/yFoP8AeFZFa+hf8haD/eFDGj7t0/8A48Yf9wVcqnp//HjD/uCrleO92adgooooLCnx/eplPj+9Qy4H5F/GX/ko1z/vNXnFej/GX/ko1z/vNXnFZnSgooooAKin/wBRJ/ut/Kpain/1En+638qaBn6/fCb/AJJlov8A16pXf1wHwm/5Jlov/Xqld/Vs5am5HN/qm+hr+pb/AIJkf8muWf8A2FL7/wBCr+Wmb/VN9DX9S3/BMj/k1yz/AOwpff8AoVfA8f8A/Ivh/i/Q+14Fa+uu3b9UfodRRRX4yfsIUUUUAf/V/vYooooAKUd/of5UlKO/0P8AKmtyZbM/zqv+CqH/ACf18UT/ANRuT/0BK/PpRhRX6C/8FUOP2+/iiP8AqNSf+gJX59KSVFf0Zk/+50vRfkj8HzZ/7VXT7v8AMR/u1+m/7KP/ACRtv+vyX/2WvzIf7tfpx+yiMfBpj/0+S/8AsteojyqjtufQVFFFWc8tXcKKKKBD4/vV+Y/7TP8AyUcf9cf61+nEf3q/Mb9pn/ko4/64/wBaGaQt1Pn2iiiszo9AooooGgr034c/6+avMq9N+HP+vmrqwvxmeI+A9booor0jzgooooAKKKKACtfQv+QtB/vCsitfQv8AkLQf7woY0fdun/8AHjD/ALgq5VPT/wDjxh/3BVyvHe7NOwUUUUFhT4/vUynx/eoZcD8i/jL/AMlGuf8AeavOK9H+Mv8AyUa5/wB5q84rM6UFFFFABUU/+ok/3W/lUtRT/wCok/3W/lTQM/X74Tf8ky0X/r1Su/rgPhN/yTLRf+vVK7+rZyVdyOb/AFTfQ1/Ut/wTI/5Ncs/+wpff+hV/LTN/qm+hr+pb/gmR/wAmuWf/AGFL7/0KvgeP/wDkXw/xfofZ8B/76/T9UfodRRRX4yfsgUUUUAf/1v72KKKKAClHf6H+VJSjv9D/ACprcmWzP86r/gqh/wAn9fFE/wDUbk/9ASvz6UYUV+gv/BVDj9vv4oj/AKjUn/oCV+fSklRX9GZP/udL0X5I/CM0a+t17/zfqI/3a/Tn9lL/AJIyf+vyX/2WvzGf7tfpx+yic/Bph/0+S/8Asteojyq6ufQVFFFWc97aMKKKKCR8f3q/Mf8AaZ/5KOP+uP8AWv04j+9X5j/tM/8AJR1/64/1oZpTPnyiiiszpuloFFFFAIK9N+HP+vmrzKvTfhz/AK+aurC/GZ4j4D1uiiivSPOCiiigAooooAK19C/5C0H+8KyK19C/5C0H+8KGNH3bp/8Ax4w/7gq5VPT/APjxh/3BVyvHe7NOwUUUUFhT4/vUynx/eoZcD8i/jL/yUa5/3mrzivR/jL/yUa5/3mrziszpQUUUUAFRT/6iT/db+VS1FP8A6iT/AHW/lTQM/X74Tf8AJMtF/wCvVK7+uA+E3/JMtF/69Urv6tnLU3I5v9U30Nf1Lf8ABMj/AJNcs/8AsKX3/oVfy0zf6pvoa/qW/wCCZH/Jrln/ANhS+/8AQq+B4/8A+RfD/F+h9rwK19ddu36o/Q6iiivxk/YQooooA//X/vYooooAKUd/of5UlKO/0P8AKmtyZbM/zqv+CqH/ACf18UT/ANRuT/0BK/PpRhRX6C/8FUOP2+/iiP8AqNSf+gJX59KSVFf0Zk/+50vRfkj8HzZ/7VXT7v8AMR/u1+m/7KP/ACRtv+vyX/2WvzIf7tfpx+yiMfBpj/0+S/8AsteojyqjtufQVFFFWc8tXcKKKKBD4/vV+Y/7TP8AyUdf+uP9a/TiP71fmP8AtM/8lHX/AK4/1oZrTPnyiiiszWe6CiiigtBXpvw5/wBfNXmVem/Dn/XzV1YX4zPEfAet0UUV6R5wUUUUAFFFFABWvoX/ACFoP94VkVr6F/yFoP8AeFDGj7t0/wD48Yf9wVcqnp//AB4w/wC4KuV473Zp2CiiigsKfH96mU+P71DLgfkX8Zf+SjXP+81ecV6P8Zf+SjXP+81ecVmdKCiiigAqKf8A1En+638qlqKf/USf7rfypoGfr98Jv+SZaL/16pXf1wHwm/5Jlov/AF6pXf1bOSruRzf6pvoa/qW/4Jkf8muWf/YUvv8A0Kv5aZv9U30Nf1Lf8EyP+TXLP/sKX3/oVfA8f/8AIvh/i/Q+z4D/AN9fp+qP0Oooor8ZP2QKKKKAP//Q/vYooooAKUd/of5UlKO/0P8AKmtyZbM/zqv+CqH/ACf18UT/ANRuT/0BK/PpRhRX6C/8FUOP2+/iiP8AqNSf+gJX59KSVFf0Zk/+50vRfkj8IzRr63Xv/N+oj/dr9Of2Uv8AkjJ/6/Jf/Za/MZ/u1+nH7KJz8GmH/T5L/wCy16iPKrq59BUUUVZz3towooooJHx/er8x/wBpn/ko6/8AXH+tfpxH96vzG/aZ/wCSjj/rj/WhmkHY+faKKKzN2rtMKKKKCkFem/Dn/XzV5lXpvw5/181dWF+MzxHwHrdFFFekecFFFFABRRRQAVr6F/yFoP8AeFZFa+hf8haD/eFDGj7t0/8A48Yf9wVcqnp//HjD/uCrleO92adgooooLCnx/eplPj+9Qy4H5F/GX/ko1z/vNXnFej/GX/ko1z/vNXnFZnSgooooAKin/wBRJ/ut/Kpain/1En+638qaBn6/fCb/AJJlov8A16pXf1wHwm/5Jlov/Xqld/Vs5am5HN/qm+hr+pb/AIJkf8muWf8A2FL7/wBCr+Wmb/VN9DX9S3/BMj/k1yz/AOwpff8AoVfA8f8A/Ivh/i/Q+14Fa+uu3b9UfodRRRX4yfsIUUUUAf/R/vYooooAKUd/of5UlKO/0P8AKmtyZbM/zqv+CqH/ACf18UT/ANRuT/0BK/PpRhRX6Cf8FUCP+G+vij/2GpP/AEBK/PtSSor+jMn/ANzpei/JH4Pm3+9V0+/6iP8Adr9N/wBlH/kjbf8AX5L/AOy1+ZD/AHa/Tj9lEY+DTH/p8l/9lr1EeVUdtz6Coooqznlq7hRRRQIfH96vzH/aZ/5KOP8Arj/Wv04j+9X5jftM/wDJRx/1x/rQzSFup8+0UUVmdHoFFFFA0Fem/Dn/AF81eZV6b8Of9fNXVhfjM8R8B63RRRXpHnBRRRQAUUUUAFa+hf8AIWg/3hWRWvoX/IWg/wB4UMaPu3T/APjxh/3BVyqen/8AHjD/ALgq5XjvdmnYKKKKCwp8f3qZT4/vUMuB+Rfxl/5KNc/7zV5xXo/xl/5KNc/7zV5xWZ0oKKKKACop/wDUSf7rfyqWop/9RJ/ut/KmgZ+v3wm/5Jlov/Xqld/XAfCb/kmWi/8AXqld/Vs5KtyOb/VN9DX9S3/BMj/k1yz/AOwpff8AoVfy0zf6pvoa/qW/4Jkf8muWf/YUvv8A0KvgeP8A/kXw/wAX6H2fAf8Avr9P1R+h1FFFfjJ+yBRRRQB//9L+9iiiigApDwOuM8ZxnrS0YB4PSmtwtfQ/iV/4Kzf8E9f2iLH9orxt+0BpmkvqOga3ftdRSW37xwCqj7ijOMjFfg7c6bf2Extb2F4pFJBV1III9jX+p7e6ZYalbSWeoxLPFICpV1DcHr1yK/J/9rz/AIJBfs3ftJ2dzq2hW40DxBKMrdRJkBu/AHccV+l5HxvCnGGHxMbJWVz89zfhGc5zr0HdvWx/ArICoINfpx+yl/yRk/8AX5L/AOy11P7W3/BIv9pb9m29uNSsbGTX9DiyftduhLbR32jP41lfso6Jq/8Awqx7AWk+Vu5MqY2DAk46Y9q/SMHmOGxMeelNNH5/j8BiKLtUg7nttKAT0r3/AMD/ALMnxo+IUXmeGdAu51JwWKFMfgwH86+x/hx/wS6+MfiMq3jAnSVbn7of196yxOdYKjdVKqTHhMlxdf4KbPy62Pu2gHNWoNP1C6OLaCST/dUn+Qr+hz4df8EovAeglJfG9+dTBOWVV2nHplTX2b4K/Yy/Z/8AAdwtx4f0RVkHeT5849d2a+ZxPHmBpScad5HvYXgfGVdZPl9T+WvwJ8DPif48vo7fQ9HuJFdtpZlMY544LDBr8wP28fg34y+Dnxdt9D8awfZLuSzSYxHk4cn6Y6d6/wBGWz8N6Fp6hbKygixj7karnHToK/iL/wCC+Dqf2xlUDbjTYRj6M1RkXFs8xxioOPLGzOjOuFqeXYT2vNzSuj8NKKKK+6PjttAooooGgr034c/6+avMq9N+HP8Ar5q6sL8ZniPgPW6KKK9I84KKKKACiiigArX0L/kLQf7wrIrX0L/kLQf7woY0fdun/wDHjD/uCrlU9P8A+PGH/cFXK8d7s07BRRRQWFSRFRICwJHoKjqe2GZ1HvSlsxx3sfMfxs/4J7ftRN/xdLTvD7XOkXo86GSN9xMbDI6DrXwjrnw68c+G22a5pF5an/prC6jjryRiv9HX9keztL79nbwxBdQxyqbOLIdQwOFHrmvQfiF+zz8IfijYNpfjbQbS7iYbT+5QHB9wBX5g+O50a8qNaF0m1c/SVwb7WhGpSnq0j/MVdTF/rBt+tNBDDI5r+9T4t/8ABFD9jnx6JL/w/on9jXbqQJY2Zlyeny9sV+W/xY/4N09etkm1j4c+LRMF+7bPDy3PY8V7mE41wFX43y+p5eI4Qx1J2jHm9D+XSop/9RJ/ut/Kv1L+KH/BIH9tf4bzyTL4Xl1GxjJzcRsFAX1I5PtxX59+PPhJ8Rfh9ez6R4q0m5tpY0bcTG23pnrjHFfS4bH4avrSqJ/M8DFYCvh7qrBo/Tf4Tf8AJMtF/wCvVK77IBx61d/Zm+EPxE+JvgzQ9E8I6VNcyvZKy4GASCfXjgV+337PP/BKp3lh1v4w3e1GCubPZz06E/XnrXJmWf4PBRbqz17I2wOR4rGNKnDTufj74B+EPj34m6omieFrGSaW5O2MlSE9yWxgAV/U5+xF8I/FXwY+A9p4L8ZoIr9Lqe4dVOQPNbsf1r3f4c/Bn4b/AAq02PR/BOlwWsUfRgg3Z9c9a9PmXILGvyXiTiv+0oqjCNoLU/TOHuFo5fP2rleTKtFFFfHn14UUUUAf/9P+9iiiigAooooAKQDBzS0UA1cz9S0rT9YtnstViW4gkGGjcBkYehBryHQ/2c/gz4d1ObU9K0G1jaeRpWTy12Bm64GM/qa9uoreniasFaEmjGeGpS+KKZk2Gg6JpUflabaxQL6IoX+VaxwRjHFFFZupJu7epooRWyFBx0HSgHBzSUVBRMpDYzX8Mn/BfD/k84f9g6L/ANCav7mE61/DP/wXx/5POGP+gdF/6E1fa8Cr/hQT8mfIca64D5o/Dyiiiv2s/InqFFFFA0Fem/Dn/XzV5lXpvw5/181dWF+MzxHwHrdFFFekecFFFFABRRRQAVr6F/yFoP8AeFZFa+hf8haD/eFDGj7t0/8A48Yf9wVcqnp//HjD/uCrleO92adgooooLCrFp/x8L9ar1PbHE6n3qZ/Cyo7o/r3/AGOQB+z54Xb/AKc4v/QRX1M+05avlz9jkZ/Z58L/APXnH/6AK+oygA4r+bcz1xVRru/zP6Fy3/dqfohRIVUAYphbJ3YoIwBTwmD7V58vM9JNrYrvHHKjRzqJFbswyMV5j4r+Cnwn8a2EmneIvD9jPHKCGJgTdz15wa9XKKaiYYOK0p4ipD4JNGFTD0qnxxTPNfAfwi+Hnw00xdJ8F6ZDYxIfl2KAQPQHHSvSQhA3kkmlIwAacykDrxROrKTvN3ZdOnGC5YKyFEjA5pWlZhtNRUVnYsKKKKACiiigD//U/vYooooAKKKKACiiigAooooAKKKKACiiigByfeFfw0f8F78H9s9VB5/s2I/+PNX9ypJCHb1r8av+Ci3/AASd8Hftp62vxHsNSfSfEVrbrCjKgZZQmdoPB9cH25r6fhPMqODxqqV3ZPQ+c4pwFbFYLloq7ufwfFWFJg19+ftP/wDBOj9pL9ljVPI8a6LLd2jEhbm0UyR4zgE4zjNfBs6eUzRMMMpwQeCCPWv3LDYmliIc9Gaa9T8dr4arRly1YtMqUUUVuYoK9N+HP+vmrzKvTfhz/r5q6sL8ZniPgPW6KKK9I84KKKKACiiigArX0L/kLQf7wrIrX0L/AJC0H+8KGNH3bp//AB4w/wC4KuVT0/8A48Yf9wVcrx3uzTsFFFPWOR+FBJ9hQWMqe1+a5RF5JPQVu+G/CHiXxbqUWleHbGa7mlbaBEjN/IHFfq3+z/8A8EwPGXi6VdT+Kch0izBV41i/eSkdfm4x14wB9a8vMc1wmFpydaolp8z1MuyjFYuS9jC6/A/YD9jhs/s8eF2U5H2SMceoXFfUnmN/n/8AVXD/AA68CaT8NvB1h4L0M5tdPjEaE9SAMZ+p613JQAcV/POMrxrYipOns2z94wVGVKhThPdIaWLdaXzG/wA//qplFcrOwf5jf5//AFU0nJzSUUALnIxSlyRim0UAFFFFABRRRQAUUUUAf//V/vYooooAKKKKACiiigAooooAKKKKACiiigBykDrTWCk5oop36Azn/EXhHw54s0ybSvEFpFdQzqUYSoG+UjGOQfr9a/EP9rz/AIIe/AX4xwTav8IM+FtUkDPMYhuSVh8w+UjuQBxX7vKQOtNZUY55ruwWaYnCSUqEmjz8ZltDErkqwTR/nM/tOf8ABO39o79l6/lXxlos01grER3kakpIM4BAxkV8KT21xayGK6jaNh2YEH8jX+phr3hHw14qsZNO8R2MN7BIMFZkEg/DINfiN+2B/wAEP/gR8ZxceI/hT/xTuuXTtJLLy8bEnPCjpxwO3tX6VlXHtOo1Txis+6Phc14NlFueD1XY/iBr034eYWSVh3r6v/am/wCCcn7R37Ll/dS+JdFnuNJt3KrfRoTHIo6EYHGfQmvnHwBpsy6DNfzQsgWQLuZSBz7n61+kZfi6NVKpTmmn2Z8FjsJWpXhUi00dypyMmloEsXcr+dKZYuxX8xXs867nja9hKKBLFnkr+dKZYuxX8xRzruGvYSigSxZ5K/nSmWLsV/MUc67hr2ErY0BS2rwKO7CscSxZ5K/nXVeCbeLUPFdlZh1XzHI5I7An+lJziluNJ9j7bsVK2USn+4KvrE7fdGT6AV1HhfwT4g8UXkGiaBZTXdxIdipGvOR79K/VL4A/8EuvGnixLfX/AInytp1pnc1soxIy9uR+fFfL5hnGEwd5VppeXU9nAZNisXrRhddz8p/C/hHxD4u1OLS9AspryWV9gES/xdcE9B+Nfql+z5/wS48ZeNJU1v4qTnS7JSGFuF3SSL7noK/af4R/s5fCj4MaaNP8I6ZHuyGaWVQz7sep5r6FRRtHb6V+Y5zx7WqqVHCLlXfqfo+VcE0aTVTF+91t0Pnr4PfszfCT4J2RtvB+lRLI2C8siguxHfNfRLIAmRwB2FIVBp7f6mvga2JqVp885Ns+2o4elSjyU4pLyIVCquRQXIPFMzkYowetZp2Ol6gTk5pKKKQBRRRQAUUUUAFFFFABRRRQAUUUUAf/1v72KKKKACiiigAooooAKKKKACiiigAooooAKKKKACiiigBynBxTGVSc80tFJpMlxT3Ob8S+FvD/AIv0t9E8T2UV/ayE7o5kDqQRjHPavzM+JP8AwSB/ZN+IOt3OsRWs2lG4fzPLtDtVWPXGQR/9av1Xpu1Scmu7CZjicM+ajNr0OXFYDD4hctaCZ+LH/Dj/APZf/wCf/U/++1/+Jo/4cgfsv/8AQQ1P/v4v/wATX7TlBngmgIoPNet/rbm3Suzz1wxltv4SPxX/AOHIH7L/AP0ENT/77X/4ml/4cgfswf8AP/qf/fa//E1+05Rc5pQijrVf63Ztb+OyVwxl3/PpH4r/APDkD9l/tqGp/wDfa/8AxNH/AA5A/Zg/5/8AU/8Avtf/AImv2p2R9s03aKn/AFuzb/n+xvhnLV/y6R+LH/DkD9l/tqGp/wDfa/8AxNaOj/8ABFH9mbR9Ug1W3v8AUi9u4dQXGCR64Wv2W2CpIlG7HrSfFeayTjKu7MP9WstvdUkeE/Cr9nD4T/CPTUsvDGmxmVSW86RQZMkk/eIz3xXuzc4DE8VaaMMc5NMdFVSRz9a8OtXnVlz1JNvzPXw+Hp0I8lKKS8ithT1qVc446UzPsKTJ7Vjp1NbEvze1DM2zacYqLLUZNPTsOyEp244202ikAUUUUAFFFFABRRRQAUUUUAFFFFABRRRQB//X/vYooooAKKKKACiiigAooooAKKKKACiiigAooooAKKKKACiiigAooooAKKKKACiiigAooooAKcrFTuFNooEkTec3t/n8aRpWYbTUVFAwooooAKKKKACiiigAooooAKKKKACiiigAooooAKKKKACiiigD/9k=;" vertex="1" parent="1">
                    <mxGeometry x="200" y="460" width="91.2" height="97.35" as="geometry"/>
                </mxCell>
                <mxCell id="3" value="Amazon S3" style="sketch=0;outlineConnect=0;fontColor=#232F3E;gradientColor=none;strokeColor=#ffffff;fillColor=#232F3E;dashed=0;verticalLabelPosition=middle;verticalAlign=bottom;align=center;html=1;whiteSpace=wrap;fontSize=10;fontStyle=1;spacing=3;shape=mxgraph.aws4.productIcon;prIcon=mxgraph.aws4.s3;" vertex="1" parent="1">
                    <mxGeometry x="170" y="120" width="80" height="100" as="geometry"/>
                </mxCell>
                <mxCell id="6" value="" style="verticalLabelPosition=bottom;html=1;verticalAlign=top;align=center;strokeColor=none;fillColor=#00BEF2;shape=mxgraph.azure.code_file;pointerEvents=1;" vertex="1" parent="1">
                    <mxGeometry x="250" y="250" width="50" height="55" as="geometry"/>
                </mxCell>
                <mxCell id="7" value="" style="shape=image;imageAspect=0;aspect=fixed;verticalLabelPosition=bottom;verticalAlign=top;image=data:image/jpeg,/9j/4AAQSkZJRgABAQEAAAAAAAD/4QBCRXhpZgAATU0AKgAAAAgAAYdpAAQAAAABAAAAGgAAAAAAAkAAAAMAAAABAAAAAEABAAEAAAABAAAAAAAAAAAAAP/bAEMACwkJBwkJBwkJCQkLCQkJCQkJCwkLCwwLCwsMDRAMEQ4NDgwSGRIlGh0lHRkfHCkpFiU3NTYaKjI+LSkwGTshE//bAEMBBwgICwkLFQsLFSwdGR0sLCwsLCwsLCwsLCwsLCwsLCwsLCwsLCwsLCwsLCwsLCwsLCwsLCwsLCwsLCwsLCwsLP/AABEIAdoB2gMBIgACEQEDEQH/xAAfAAABBQEBAQEBAQAAAAAAAAAAAQIDBAUGBwgJCgv/xAC1EAACAQMDAgQDBQUEBAAAAX0BAgMABBEFEiExQQYTUWEHInEUMoGRoQgjQrHBFVLR8CQzYnKCCQoWFxgZGiUmJygpKjQ1Njc4OTpDREVGR0hJSlNUVVZXWFlaY2RlZmdoaWpzdHV2d3h5eoOEhYaHiImKkpOUlZaXmJmaoqOkpaanqKmqsrO0tba3uLm6wsPExcbHyMnK0tPU1dbX2Nna4eLj5OXm5+jp6vHy8/T19vf4+fr/xAAfAQADAQEBAQEBAQEBAAAAAAAAAQIDBAUGBwgJCgv/xAC1EQACAQIEBAMEBwUEBAABAncAAQIDEQQFITEGEkFRB2FxEyIygQgUQpGhscEJIzNS8BVictEKFiQ04SXxFxgZGiYnKCkqNTY3ODk6Q0RFRkdISUpTVFVWV1hZWmNkZWZnaGlqc3R1dnd4eXqCg4SFhoeIiYqSk5SVlpeYmZqio6Slpqeoqaqys7S1tre4ubrCw8TFxsfIycrS09TV1tfY2dri4+Tl5ufo6ery8/T19vf4+fr/2gAMAwEAAhEDEQA/APXKKKKACiiigAooooAKKKKACiiigAooooAKKKKACiiigAooooAKKKKACiiigAooooAKKKKACiiigAooooAKKKKACiiigAooooAKKKKACiiigAooooAKKKKACiiigAooooAKKKKACiiigAooooAKKKKACiiigAooooAKKKKACiiigAooooAKKKKACiiigAooooAKKKKACiiigAooooAKKKKACiiigAooooAKKKKACiiigAooooAKKKKACiiigAooooAKKKKACiiigAooooAKKKKACiiigAooooAKKKKACiiigAooooAKKKKACiiigAooooAKKKKACiiigAooooAKKKKACiiigAooooAKKKKACiimtJEmN7ouem5gucemaLX2DYdRVY6hpakq19ZhgSCDcRAgjsQWqF9a0KNir6lZBhg48+M9foa2VCrLaL+4ydamt5L7y/RWd/bvh/8A6Cdl/wB/k/xo/t3w/wD9BOy/7/J/jVfVq38j+5i+sUv5196NGis7+3fD/wD0E7L/AL/J/jR/bvh//oJ2X/f5P8aPq1b+R/cw+sUv5196NGis7+3fD/8A0E7L/v8AJ/jR/bvh/wD6Cdl/3+T/ABo+rVv5H9zD6xS/nX3o0aKzv7d8P/8AQTsv+/yf40f274f/AOgnZf8Af5P8aPq1b+R/cw+sUv5196NGis7+3fD/AP0E7L/v8n+NQnxL4bUlTqMOQSDgSMOPQhcU1hK72pv7mS8TRW8196Neisj/AISbw1/0EYv++Zf/AImj/hJvDX/QRi/75l/+JqvqWJ/59y+5i+t0P5196Neisj/hJvDX/QRi/wC+Zf8A4mj/AISbw1/0EYv++Zf/AImj6lif+fcvuYfW6H86+9GvRWaNd8PkA/2nZ888zIP0NL/bvh//AKCdl/3+T/Go+q1/5H9zK+sUv5196NGis7+3fD//AEE7L/v8n+NH9u+H/wDoJ2X/AH+T/Gj6tW/kf3Mf1il/OvvRo0Vnf274f/6Cdl/3+T/Gj+3fD/8A0E7L/v8AJ/jR9WrfyP7mH1il/OvvRo0Vnf274f8A+gnZf9/k/wAaP7d8P/8AQTsv+/yf40fVq38j+5h9Ypfzr70aNFZ39u+H/wDoJ2X/AH+T/Gj+3fD/AP0E7L/v8n+NH1at/I/uYfWKX86+9GjRVX+0tJ/5/wCy/wDAiH/4qpkuLWTb5c8L7uV2SI276YNZOnOO6ZaqRezJKKKKgsKKKKACiiigAooooAKKKKACiiigAooooAKKKKACiiigAooooAKKKKACiiigAooooAKbJJFCjSSyJHGoyzyMFVR7luKwNZ8U2Gm74Lfbc3oyCin91Ef+mjDv7D9K4DUNV1PVJN95OzgfciX5YU/3UHH49a93A5JXxSU5+7H8X6I8bGZvRw3ux96X4fNneX3jHRbUslv5l5IP+ePyxZ95H/oDXOXXjTW5si3WC1XttXzX692k4/8AHf8A63M0V9Xh8lwlH7PM/PX8NvwPma+b4qrtLlXl/Vy9PrGtXBPnahdtk5wJXRcj0VCB+lUmZm5ZmY8/eJPX60lFetCnCmrQSXoebKpOesm2JgelFLRVkBRRRQIKKKKACiiigAooooAKKKKACiiigAooooAKKKKACiiigAooooAKKKKACiiigBMD0pRwQRwR0I4NFFAyxDf6lbkGC8uosZwI5pFAycngHFa1t4t8RW5XdcJcIOq3EanI5/iTDfrWDRXPVwtCt/Egn8jenia1L4JtfM72y8cWj7Vv7WSEnAMkB8yP6lThv511FpfWF/H5tncRTJ3KHlT6Mp5H4ivGqkguLm2kWa3lkilUgh42Knj1xXhYrh6hUV6L5X96/wAz2cPntaDtWXMvuZ7TRXE6R4zyUg1dQM8C6iXj/trGv8x+Xeu0jkimRJYnV43UMjoQysp7gjivkMXga2Dly1V8+jPqcNjKWKjzUn8uo6iiiuI6wooooAKKKKACiiigAooooAKKKKACiiigAooooAKKKKAAkAEkgADJJ4AArgvEHiuSZprLS32wjKS3SH5pOoKxHsvv/knivxA0zyaXZSYhTK3kiH/Wt/zyVgfuj+L16duePr7PJ8nSSxGIWvRfqz5PNc1bboUH6v8ARBRRRX1x8sFFFFABRRRQAUUUUAFFFFABRRRQAUUUUAFFFFABRRRQAUUUUAFFFFABRRRQAUUUUAFFFFABRRRQAUUUUAFFFFABRRRQAUUUUAFbOia/eaPKq5aWyd8zQE9M8Foieh/n+oxqKyrUadeDp1FdM2o1p0ZqdN2aPZbK9tNQt47q1kEkT9+jKw6qw6girFeUaHrU+jXW8AvbTbVuYs9QP40/2h/9b6epwTwXMMU8EiyQyqHjdejKe9fnOZ5bLA1NNYvZ/o/M+8y/HxxkO0luv1JKKKK8k9MKKKKACiiigAooooAKKKKACiiigAooooAK53xTrX9m2n2eB8Xt2rLGQeYoujSfXsv/ANat+WSOGOWWRgscaNI7HoFUbia8i1TUJdTvrm7kzh22wqf4IV4Rf8frXu5JgViq/PNe7H8X0R42b4x4ajyw+KX5dSjS0UV+iHwYUUUUAFFFFABRRRQAUUUUAFFFFABRRRQAUUUUAFFFFABRRRQAUUUUAFFFFABRRRQAUUUUAFFFFABRRRQAUUUUAFFFFABRRRQAUUUUAFFFFABXWeENZNtP/Zlw/wC4uXzbFjxHOf4Po38/rXJ0AspVlJDKQykcEEHIINcuLwsMVRdKfX8H3OnC4iWGqqrHoe20VlaBqX9qabbzsf3yZhuP+uqAZP48H8a1a/LKtKVGbpz3Wh+kU6kasFOOzCiiiszQKKKKACiiigAooooAKKKKACiiigDmvGN8bbTPs6HEl7IIeOoiX53P8h+Neb10njK6M+qrAD8tpAi9/vyfvD+mK5uv0jJcP7HBxfWWv37fhY+Azev7XFSXSOn+f4hRRRXsnkhRRRQAUUUUAFFFFABRRRQAUUUUAFFFFABRRRQAUUUUAFFFFABRRRQAUUUUAFFFFABRRRQAUUUUAFFFFABRRRQAUUUUAFFFFABRRRQAUUUUAFFFFAHUeDL8wX8tkx/d3kZZATwJogWGB7jP5V6LXjNlcNaXlndL1gnjk/ANyPyzXskbK6KynKsAVI7g8g18HxFh/Z4iNVfaX4r/AIFj7XIa/PQdN/Zf4P8ApjqKKK+aPoAooooAKKKKACiiigAooooAKRvumlqK4fZFI2Cdqs2B1O0ZxRuB5Jq05uNT1OY5+a6lAzwQFbYBj8KpUrHczNz8zFueTyc80lfr1OCpwUF0Vj8uqTc5uT6sKKKKszCiiigAooooAKKKKACiiigAooooAKKKKALNlYX2ozeRZwmWQKWIBACqOMszcVqf8Il4m/59E/7/AMP/AMVVrwXdpBqctu+ALuEqhP8Afj+cD8ea9Gr5bNM3xGDr+yhFWsnrf/M+ly3K6GKo+0m3e/T/AIY8v/4RLxN/z6J/3/h/+Ko/4RLxN/z6J/3/AIf/AIqvUKK8v/WPFfyx+5/5no/2Dhu7+9f5HjV5ZXlhO1vdxGOVQGwSCCp6FSOCKr133jex8y1tb9F+a3fyZSP+ecnQn6H+dcDX1uXYv65h1Ve/X1Pl8fhfqtd01t09CzZWF9qM3kWcJlkCliAQAqjuzNxWp/wiXib/AJ9E/wC/8P8A8VVvwXdpBqU1s+ALyHahPXfH8wH4816LXi5pm+Iwdf2UIq1lvf8AzPXy3K6GKo+0m3e/T/hjy/8A4RLxN/z6J/3/AIf/AIqj/hEvE3/Pon/f+H/4qvUKK8z/AFjxX8sfuf8Amej/AGDhu7+9f5HjV5ZXunzNb3cRjlADYJBBU91I4IqvXf8Ajex820tb5B81s/lSH/pnJ0P4H+dcBX1uXYz65h1Ve/X1Pl8fhfqtd01t09C5YaZqOpu8dlAZGRQznKqqg9MsxArR/wCES8Tf8+if9/4f/iq0/A94qXN9ZNgGdFmjPctHwR+Rz+Fd7Xh5lnOIwmIdKMVbS17/AOZ7OX5Vh8VQVSTd/L/hjy//AIRLxN/z6J/3/h/+Ko/4RLxN/wA+if8Af+H/AOKr1CivO/1jxX8sfuf+Z3/2Dhu7+9f5HjFza3NnPJb3MbRzRnDK3vyCCOMVDXbeOLHmy1BF9baYgf8AAkJ/UVxNfYYDFfW6EavV7+p8rjcN9VrSpdFt6BRRRXacYUUUUAFFFFABRRRQAUUUUAFFFFACV63oU5uNK02UkFmtogxzn5lGw5PrxzXkteleEJd+j2ylgTHJPHgY+UBywBx9c/jXzPEkL4eM+z/NM+iyCdq8o91+p0dFFFfCH2YUUUUAFFFFABRRRQAUUUUAFUdVZksb5lOGW2uGUjqCI2INXqzNdkMWmalIACVtZ+D05Qr2rWiuapFeaM6rtTk/Jnkg7UtJS1+uH5eFFFFAgooooAKKKKACiiigAooooAKKKKACiiigCW2uJLW4trmM4eCVJV/4Cc4r2S3mjuYILiM5SaNJF+jDNeLV6N4MvvtGmvau2ZLKQqMnnyn+Zfy5FfL8RYbnoxrreOj9H/wfzPo8hxHLVdF/a/Nf8A6eiiivhj7IrX9ql7ZXlo44nidB7NjKn8DivHZEeKSSJxh43ZGB7Mpwa9rrzPxdY/ZNWkmUYjvVE6+m/wC64/r+NfV8OYnlqSoPrqvVf8D8j5rP8PzQjWXTR/P+vxMS1uJLS5trmM4eCVJV/wCAnOK9jgmjuIIJ4zlJo0kU+zDNeLV6P4MvvtGmtas2ZLKQoM9fKf5l/qK7uI8Nz0o11vHR+j/4P5nHkOI5asqL6/mjpqKKK+GPsSvfWqXtnd2r/dniePnsSOD+BrxyWN4ZJYpBh4naNwezKcGva6808X2P2TVWnUYjvUEw9PMHyuP6/jX1XDmJ5akqD66r1X/A/I+az7D81ONZdNH6P+vxMjTbtrC+s7tT/qZVLe6Hhh+Wa9hR1kRHQ5V1V1I6EMMg14nXp/hS++2aTCjNmW0Y27567Ryh/L+VdfEmG5oRrrpo/wBP68zmyDEWnKi+uqN6iiivij64oaxZDUNNvrbALvEWi9pE+Za8hIIJBGCCQQexHGK9tryvxLY/YdXu1VcRTkXMXpiTkgfQ5r67hvE2lPDvrqv1Pl8/w91GuvR/oY1FFFfZnyQUUUUAFFFFABRRRQAUUUUAFFFFABXoHgl1OnzIM7ku5N3p8yIRivP67zwR/wAel7/19/8AtNa8HP1fBP1R7eSO2LXozsaKKK/PD7oKKKKACiiigAooooAKKKKACsnxD/yCdU/69Zv/AEGtasnxB/yCtT/69Jv/AEGt8N/Gh6r8zHEfwp+j/I8oooor9aPzAKKKKACiiigAooooAKKKKACiiigAooooAKKKKACt7wpffY9XgRjiK7Btn9Nzcofz/nWDSqzIyOpwyMGUjsQcg1hiKKr0pUpdVY3oVXRqRqLoz2yiqmm3i39hZXan/XRKzezjhh+eat1+UTg4ScJbo/TISU4qUdmFc34xsftWlm4VcyWTiXjr5bfK/wDQ/hXSUyaJJ4poXGUlR42Hswwa2wtd4etGqujMcTRVelKm+qPFa3vCd99j1aFGbEV2pt3z03HlD+f86yLy2ks7u6tX+9BK8Z9wDwahRmRkdDhkZXU+hU5Br9PrU44qg4dJL/hj86o1JYesp9Ys9soqppt2t/Y2d2v/AC2iVm9nHDD881br8pnBwk4y3R+lwkpxUo7MK5zxhY/atKadRmSycTD18s/K4/kfwro6ZLGk0UsTjKSo0bj1Vhg1tha7w9aNVdGZYiiq9KVN9UeK103g2++z6k1qxxHexlRnp5qfMv8AUVg3tq9ld3dq/wB6CV4/qAeD+IxUcE0lvPBPGcPDIkqkeqnNfp2JpRxeHlBbSWn6H53h6ssLXU3vF6/qe00VDa3Ed3bW1zGcpPEki4/2hnFTV+VSi4tp7o/SotSV0Fcn42sfOsre+QfPaSbJMf8APKTj9Dj866yoLy2S8tbq1cfLPE8Z9iRwfwrqwWIeGrwq9n+HU5sXQ+sUZU+6/HoeM0U+aKSCWaGQYeKR43HupwaZX6qmmro/NWmnZhRRRTEFFFFABRRRQAUUUUAFFFFABXd+CP8Aj0vP+vs/+i0rhK7vwT/x6Xf/AF9n/wBFpXhZ/wD7lL1X5ntZJ/va9H+R2VFFFfnZ92FFFFABRRRQAUUUUAFFFFABWP4iZU0nUyxwDayr+LDaB+ZrYrC8U/8AIH1H/rmn/oxa6cIr4imv7y/M58S7UJvyf5Hl9FFFfrB+ZBRRRQAUUUUAFFFFABRRRQAUUUUAFFFFABRRRQAUUUUAd34Hvt0N5p7nmJhcQg/3H4YD8f512VeS6Dff2fqtlOTiMv5M3/XOT5T+XB/CvWq/Pc+w3scVzraWvz6/15n3WS4j2uH5HvHT5dAooorwD2zz7xtY+Te298q/JdR+XIR/z1j4/UY/KuTr1TxLY/btJu1UZlgH2mL1zHyQPqM15XX6LkWJ9thVF7x0/wAj4POcP7HEuS2lr/md34Hvt8N5p7t80TC4iB/uPwwH0OPzrsq8l0G+/s/VbKcnEbP5M3/XOT5Tn6cH8K9ar5nPsN7HFc62lr8+v9eZ9DkuI9rh+R7x0+XQKKKK8A9s8/8AG1j5V3bXyD5LlPKkx/z0j6H8R/KuSr1XxJY/b9Ju0UZlhX7RF67o+SPxGa8qr9EyLE+2wqi946f5f15Hwmc4f2WJcltLX/M9D8FX3n2E1m7ZezkygJ58qTkfkc11VeW+F777Dq9tubEVzm2kz0+f7pP44r1Kvl88w3sMU5LaWv8An+J9Hk+I9thknvHT/IKKKK8M9g828Y2P2bVPtCriO9QSe3mr8rD+R/Gubr0nxlbRTaQ07ECS1ljeMnqd52FR+f6V5tX6TkuIdfCRvvHT7v8AgHwGbUPY4qVtnr9//BCiiivYPJCiiigAooooAKKKKACiiigAruPBD5hv48fcuEfOeu9MYx+H61w9dr4H+7qf/XS3/wDQXrxM9V8DP5fmj2Mlf+2R+f5HcUUUV+cn3oUUUUAFFFFABRRRQAUUUUAFYXin/kD6j/1zT/0YtbtYXin/AJA+o/8AXNP/AEYtdWD/AN5p/wCJfmjmxX8Cfo/yPL6KKK/Vz8zCiiigAooooAKKKKACiiigAooooAKKKKACiiigAooooAK9Y8P332/SrKYnMiJ5E3rvj+Xn68H8a8nrsPBF95dxd2Dn5Z18+IH++nDAfUfyrwc+w3tsK5reOvy6/wBeR7eS4j2WJ5HtLT59DvaKKK/PD7oCAQQRkEEEHuDXkOs2R0/Ur62xhFkLxe8b/MtevVxPjix4stRQdM20xHv8yE/qK+hyDE+yxPs3tL8+h4Wd4f2uH9ot4/l1OIr1nQL7+0NKspicyKnkzf8AXSP5T+fB/GvJq7DwPfbLi709zxMvnxA/304YD8Ofwr6LPsN7bC863jr8uv8An8jwslxHssRyPaWnz6He0UUV+eH3QEAgg8gjBryLWrE6fqd7bYwgkMkX/XN/mX/D8K9drivHFjlbLUUHKk20xA7H5kJ/UV9BkGJ9lifZvaWnz6Hh53h/a4fnW8fy6nDgkEEcEcgitNdf8QoqqupXIVQABuB4HuRmsyivvalKnU+OKfqrnxUKs6fwNr0NT/hIfEX/AEErn81/wo/4SHxF/wBBK5/Nf8Ky6Ky+qYf/AJ9r7ka/Wq/87+9lu61PVL5VS7u5pkU7lV2+UH1wOKqUUVvCEYLlgrLyMZTlN3k7sKKKKogKKKKACiiigAooooAKKKKACu18D/d1P/rpb/8AoL1xVdr4H+7qf/XS3/8AQXrxc9/3Gfy/NHsZN/vkfn+TO4ooor84PvQooooAKKKKACiiigAooooAKwvFP/IH1H/rmn/oxa3awvFP/IH1H/rmn/oxa6sH/vNP/EvzRzYr+BP0f5Hl9FFFfq5+ZhRRRQAUUUUAFFFFABRRRQAUUUUAFFFFABRRRQAUUUUAFWtPu3sb6zu1/wCWMys3unRh+Waq0VM4qcXGWzKjJwkpLdHtaOkiRyIco6q6n1VhkGnVz/hK++16TFGzZls2Nu/rtHKH8uPwroK/KMTReHqypPoz9Mw9ZV6Uai6oKo6vZDUNOvbXHzPETH7SL8yn86vUVlTqOnNTjutTScFUi4S2Z4kQVJVhgqSCD2I4Iq1p121jfWd2uf3Mqs2O6Zww/LNaHiax+w6vdBRiK4/0mLjjD/eA+hzWLX6tTnDFUVLpJfmfmtSEsPWcesX+R7WjpIiSIco6q6kdwwyDTqwPCd99s0mKNjmWzY27+u0cofy/lW/X5biaLoVZUpdGfo+HrKtSjUXVBVLVrJdQ0+9tSOZIm8v2kX5lP51dorOnN05Kcd1qXOCnFwlszxJlZWZWGGUlWB7EHBFFbfiix+w6vc7VxFc4uY+OPn+8B+OaxK/WKFZV6Uasdmrn5nXpOjUlTl0YUUUVsYhRRRQAUUUUAFFFFABRRRQAUUUUAFFFFABXa+B/u6n/ANdLf/0F64qu18D/AHdT/wCulv8A+gvXi57/ALjP5fmj2Mm/3yPz/JncUUUV+cH3oUUUUAFFFFABRRRQAUUUUAFYXin/AJA+o/8AXNP/AEYtbtYXin/kD6j/ANc0/wDRi11YP/eaf+JfmjmxX8Cfo/yPL6KKK/Vz8zCiiigAooooAKKKKACiiigAooooAKKKKACiiigAooooAKKKKAOl8HX32bUzbMcR3qGMenmp8y/1FekV4rBNJbzQzxnDwyJIhHqpzXslpcx3dra3MZyk8SSD/gQyRXw/EeG5Ksa6+1o/Vf8AA/I+xyHEc1OVF9Nfkyaiiivlj6Q5TxrY+dYwXqj57STa5HXypOP0OPzrz2vZru2ju7W5tZPuTxPGc9twwDXjk8MlvNPBIMPDI8bg+qnFfd8O4nnoOi94/k/+CfGZ9h+Ssqq2l+aOi8G332bU2tmOI72PYM9PNT5l/qK9IrxaCaS3mgnjOHhkSRT7qc17HaXEd3bW1zGfkniSQe24Zx+FebxHhuSrGuvtaP1X/A/I9DIcRzUpUX01+T/4JNRRRXyx9Gct40sfPsIrxVzJZyfMR/zyk4P5HFed17PdW8d1bXNtIMpPE8bf8CGM145cQyW089vIMPDI8bfVTivuuHcTz0ZUXvH8n/wT4zPsPyVVWX2vzX/AI6KKK+nPnQooooAKKKKACiiigAooooAKKKKACiiigArtfA/3dT/66W//AKC9cVXa+B/u6n/10t//AEF68XPf9xn8vzR7GTf75H5/kzuKKKK/OD70KKKKACiiigAooooAKKKKACsLxT/yB9R/65p/6MWt2sLxT/yB9R/65p/6MWurB/7zT/xL80c2K/gT9H+R5fRRRX6ufmYUUUUAFFFFABRRRQAUUUUAFFFFABRRRQAUUUUAFFdBY+EtYvbaK5DQRJKoeNZWbeVPQkKDVr/hB9Y/5+LT85P/AImvPlmeEhJxlUV0d8cuxUkpKDszlaK6r/hB9Y/5+LT85P8A4morjwbrUEMsqvbS+WpcpGzbyAMnbuGKSzTBt2VRDeW4pK7ps5qvQvBV951jPZOfntJNyA9fKk5/Q5/OvPa2vDF99h1e1LNiK4/0aX0+f7pP0OKjNsN9Zwsordar5F5ZiPYYmMns9H8z1OiiivzI/QgrzfxjY/ZtTFyi4jvYxIfTzU+Vv6GvSK5/xbY/bNJlkUZls2FwmOu0cOPy5/CvXyfE/V8XFvaWj+f/AATy81w/t8NJLdar5f8AAPMq9D8FX3n2E1k5+e0kynr5UnI/I5rzytTQtVOkXy3LKzwujRTop5KHnIz3HWvt80wrxWGlCK1Wq9UfH5biVhsRGcttmes0VzX/AAmmgel3/wB+h/8AFUf8Jp4f9Lv/AL9D/wCKr4H+zMZ/z7f3H239oYX/AJ+L7zpa848Z2P2fUkukXEd7HuOOnmp8rfnwa6L/AITTw/6Xf/fof/FVznibX7TV1tYLWOQRwu0rPKArMxG3AAJ4r2MnwmLw+KUpQai7p3/rueVmuJw1fDOMZpvoc1RRRX3J8aFFFFABRRRQAUUUUAFFFFABRRRQAUUUUAFdr4H+7qf/AF0t/wD0F64qu18D/d1P/rpb/wDoL14ue/7jP5fmj2Mm/wB8j8/yZ3FFFFfnB96FFFFABRRRQAUUUUAFFFFABWF4p/5A+o/9c0/9GLW7WF4p/wCQPqP/AFzT/wBGLXVg/wDeaf8AiX5o5sV/Aqej/I8vooor9XPzMKKKKACiiigAooooAKKKKACiiigAooooAKSlooA9T8MXovdItCSPMtx9mk+sfAP4jFbVee+Cb7yb24snb5LuPegP/PWPn9Rn8q9Cr8yzbDfV8VKK2eq+Z+h5ZiPb4aMnutH8goooryz0jybX7H7Bqt7CBiN38+H/AHJPm/TkfhWWCVIZTgqQQR2I5BrvPHFjvt7PUEXmFzBKR/cflSfof51wdfp+V4n6zhYze+z9UfnWY4f6viZRW26+Z6/pF6NQ06yusjc8QEntIvysPzq9XE+B77i90526YuYQfQ4VwP0NdtX5/mOG+rYmdPp09GfcYDEfWMPGp16+oU10SRJI3GUkVkYHurDBFOorg21O3c8c1C0exvby0b/ljM6r7pnKn8sVVrsPHFj5dxaX6D5Z1MEp/wBtOVP4j+VcfX6pgMR9Zw8KvVrX16n5tjaH1evKn2/LoFFFFdpxhRRRQAUUUUAFFFFABRRRQAUUUUAFFFFABRRRQAUUUUAFdr4H+7qf/XS3/wDQXriq7XwP93U/+ulv/wCgvXi57/uM/l+aPYyb/fI/P8mdxRRRX5wfehRRRQAUUUUAFFFFABRRRQAVkeIQDpWpggEfZJjyM8hcg1r1keIP+QXqf/XpP/6Aa3w38aHqvzMcR/Cn6P8AI8pooor9aPzAKKKKACiiigAooooAKKKKACiiigAooooAKKKKAJ7O5ks7q1uk+9BKkg9wDyPxr2OGVJ4oZozlJY0kQ+zDIrxWvSfB199p0v7OzZksnMXv5bfMn9R+FfLcR4bnpRrr7Oj9H/wfzPpMhxHLUlRfXVeqOkooor4c+xKuo2iX1jeWjD/XRMq+z9VP54rx10eN3jcYdGZGHoynBr2yvMfFtj9j1aWRVxFeKLhfTf0cfnz+NfV8OYnlnKg+uq9Vv/XkfM5/h+aEay6aP+v63M/Rr06fqVjc5wiyBJfeN/lavXgQQCDkEAgjuDXiVeq+Gr77fpNo7HMsA+zS+uY+AT9RiujiTDXUMQvR/p+pjkGIs5UH6r9TYooor4w+sMrxBY/b9KvYQMyInnw+u+P5uPryK8nr22vJdesf7P1W9gAxGX86H08uT5gPw6V9jw3ifjw79V+v6Hymf4f4a69H+hmUUUV9gfKhRRRQAUUUUAFFFFABRRRQAUUUUAFFFFABRRRQAUUUUAFdr4H+7qf/AF0t/wD0F64qu18D/d1P/rpb/wDoL14ue/7jP5fmj2Mm/wB8j8/yZ3FFFFfnB96FFFFABRRRQAUUUUAFFFFABWR4g/5BWp/9ek//AKCa16yPEP8AyCtT/wCvSf8A9BNb4b+ND1X5mOI/hT9H+R5TRRRX60fmAUUUUAFFFFABRRRQAUUUUAFFFFABRRRQAUUUUAFdB4SvvsmrRxMcR3imBvTf95D+fH41z9Ojd4njkQ4eN1dSOzKciufE0ViKMqT6o3w9Z0Ksai6M9roqtp92l9ZWd2vSeFHPs2MMPzzVmvyicXCTjLdH6ZGSnFSWzCua8ZWP2nTBcouZLKQSHHXym+Vv6GulqOeKOeGaCQZSWN42Hswwa3wld4etGquj/wCHMcTRVelKk+qPFq6zwTfeVe3Fi5+S6TzIx282P/Efyrmbu2ktLq6tZB88Erxn32nANLZ3Mlnd2t1H96CVJPqAeRX6Xi6KxeGlTXVafmj8+wtZ4XERm+j1/U9mopkMqTxQzRnKSokiH1VhkU+vyxpp2Z+kJ3V0Fcb44sd0NnqCLzExt5iP7j8qT+OfzrsqqalZrf2F5aMB++iYLns45U/niu3L8R9WxEKvRPX06nJjaH1ihKn16ep47RSsrIzowwyMVYHqCpwRSV+pn5uFFFFAgooooAKKKKACiiigAooooAKKKKACiiigAooooAK7XwP93U/+ulv/AOgvXFV2vgf7up/9dLf/ANBevFz3/cZ/L80exk3++R+f5M7iiiivzg+9CiiigAooooAKKKKACiiigArI8Q/8grU/+vSb/wBBNa9ZHiH/AJBWp/8AXpN/6DW+G/jQ9V+ZjiP4U/R/keU0UUV+tH5gFFFFABRRRQAUUUUAFFFFABRRRQAUUV33gy10yXT55WhikuRcOkzSIrlVwCoG7tXDjsYsHR9q1c7cFhXi6vsk7HA0V7N9jsf+fW2/78x/4UfY7H/n1tv+/Mf+FeB/rND/AJ9v7/8AgHt/6vS/5+fh/wAE8Zor2Y2WnsCrWlsQRggwx8j8q8v8Q6cum6pcwxrtgkxPAOwR/wCEfQ5Fell+cQx1R0+Xldrnn47Kp4OCqc10dP4IvvMtruwdvmgfzogf+ecnUD6H+ddhXk/h6++watZSscRyN5E3psk+XJ+hwa9Yr5fPsN7HFOa2lr8+v9eZ9HkuI9rhlF7x0/yCiiivBPaPPfGtj5N9BeqvyXcexyOnmx8fqMflXKV6n4msft2k3QVcy24+0xeuY+SB9RmvK6/RcjxPt8KoveOn+R8HnOH9jiXJbS1/zPSvB999q0sW7HMlk5i56+W3zIf5j8K6SvM/CN99k1VIWOIr1DA3pvHzIf6fjXplfJ51hvYYuVtpa/fv+J9PlOI9vho33jp/XyCiiivGPVPMPFdj9j1ed1XEV2BcpjpuPDj8/wCdYNejeM7H7RpqXSrmSyk3HHXyn+Vv6GvOa/S8nxP1jCRb3Wj+X/APz7NcP7DEyS2eq+f/AAQooor1jywooooAKKKKACiiigAooooAKKKKACiiigAooooAK7XwP93U/wDrpb/+gvXFV2vgf7up/wDXS3/9BevFz3/cZ/L80exk3++R+f5M7iiiivzg+9CiiigAooooAKKKKACiiigArI8Q/wDIK1P/AK9Jv/Qa16yPEP8AyCtT/wCvWb/0Gt8N/Gh6r8zHEfwp+j/I8pooor9aPzAKKKKACiiigAooooAKKKKACiiigArp/Bl99n1F7VziO9j2rnp5qfMv58iuYqS3nktp7e4jOHhkSVfqpzXLi8OsTQlSfVf8MdOFrOhWjVXRntNFRW08d1b29zGcpPEki/RhnFS1+UyTi7M/S01JXQVyXjax82zt75B89q/lyY/55Sf4HH511tV722jvbS7tX+7PE8Z9iRwfw6114HEPDYiFXs9fTqc2MofWKEqfdfj0PGue3XtXrWhXw1DS7GcnMgjEU3tJH8pz/P8AGvKJYnglmhkGHido3H+0pwa6/wAD322W809zxIBcQg/3l+VgPwx+Vfa59h/b4X2kd46/Lr/mfI5LXdHE+zltLT5nd0UUV+fH3AEBgVIyCCCD0IPGK8h1iyOn6lfWuPlSUtF7xv8AMtevVxHjix/48tRQettMR+LIT+or6Hh/E+yxPs3tL8+h4Wd4f2mH9ot4/l1OLjkeKSOVDh43V0PoynIr2KwukvbOzu06Two59mxhh+BzXjdd94IvvMtbqwc/Nbv50YP/ADzk6gfQ/wA69ziHDe0oKst4v8H/AEjx8ixHJWdJ7S/NHX0UUV8EfakdxDHcwT28gyk0bxt9GGK8bureS1uLm2kGHgleNs/7JxmvaK878aWPkahFeIuEvI8MQOPNj4P5jFfT8O4nkrSovaX5r/gHzufYfnpKsvs/k/8AgnLUUUV90fGBRRRQAUUUUAFFFFABRRRQAUUUUAFFFFABRRRQAV2/gdGEWoScbWnjQeuUQk/zFcRXd+Cf+PS7/wCvs/8AotK8PPnbBS9V+Z7OSq+Lj6P8jsqKKK/Oj7wKKKKACiiigAooooAKKKKACsjxD/yCdT/69Zv/AEGtesnxArNpWpKoJY2s2AOpwua3w38aHqvzMa/8KXo/yPKKKKK/Wj8wCiiigAooooAKKKKACiiigAooooAKKKKAPRPBd95+ny2bHMlnJ8uf+eUnzD8jmupry7wtffYtXtwxxFdA20npluVJ/HFeo1+c55hvYYttbS1/z/E++yfEe2wyT3jp/kFFFFeIeuea+MLH7LqhuFGI71BLx08xflcfyP41j6ZeNYX9ldg8RSqX90PysPyzXoPi6x+16VJMozLZsJ19dn3XH5c/hXmVfo2UVli8EoT1t7r/AK9D4PNKTwuLc49dV/Xqe2qyuqOpyrqGUjuCMg0tYXhW++26RArNmW0JtpOecLypP4fyrdr4DEUXQqypS6Ox9tQqqtTjUXVBVDWLIahpt7a4+Z4y0XtInzLV+is6dSVOanHdal1IKpFwlszxIggkEYIJBB7EcYrW8O332DVrOQnEcrfZ5vTZJxk/Q4NP8TWP2HVrpVXEVwftMXph/vAfQ5rGr9TXJjMP5TX5n5u+fCV/OL/I9torN0O+GoaXY3BOX8sRzf8AXSP5Tn+f41pV+W1acqU3TlunY/SKdRVIKcdnqFYfiix+3aTc7VzLbYuY/X5PvAfhmtykZVZWVhlWBUg9weCKrD1nQqxqx3TuRWpKtTlTl1R4lS1d1WzbT9QvbUjiOVjH7xt8yn8qpV+sU5qpFTjs9T8znBwk4S3QUUUVZAUUUUAFFFFABRRRQAUUUUAFFFFABRRRQAV3fgn/AI9Lv/r7P/otK4Su78Ef8el5/wBff/tNK8LP/wDcpeq/M9rJP97Xo/yOyooor87PuwooooAKKKKACiiigAooooAKztY4sL4+lrcf+i2rRqrfKWgkUAEsjKAemSCOauEuWSZM1zRaPGx2paCCCQeoJB+o4or9ePy0KKKKBBRRRQAUUUUAFFFFABRRRQAUUUUAKrMrKynDKQykdiDkGvYNLvF1DT7K7B5liXf7SL8rD868erufA99ujvdPc8oRcwg/3W+VwP0P4187xBhva4dVVvH8n/SPfyPEezr+ze0vzR2lFFFfAH2w2SNJY5InGUkRkYHurDBrx2/tXsb28tGzmCV0Ge65yp/LFeyVwPjex8u5tL9B8twnkykf89I+VJ+o/lX0vD2J9niHRe0l+K/pnz+e4f2lBVVvH8mV/Bl99n1GS0Y4jvY8L6ebH8w/MZr0avF7eeS2nt7iM4eGVJVx6qc17HbTx3Vvb3EZyk8SSLj0YZq+IsNyVo11tLf1X/AIyHEc9J0X9n8n/wAElooor5c+jOU8a2PnWMF6g+e0k2v6+VJx+hx+dee17Nd20d5a3VrJ9yeJ4zntuGAfwrxyaKS3mmgkGHhkeNx7qcV93w7ifaUHRe8fyf8AwT4zPsPyVlVW0vzR2Hge+2yXunueHAuIQf7y/K4H6H8K7qvHtLvGsNQsrsHiKVd/vG3ysPyr2BWV1VlOVYBlI6EEZBrx+IMN7LEKqtpfmv6R6uR4j2lD2b3j+TFooor5w944bxxY4ey1BF4YG2mI9R8yE/qK4uvXNbsRqGmXtsBlzGZIv+uifMv+H415GQQSDwRwR71+g5Bifa4b2b3jp8uh8PneH9liOdbS1+fUKKKK+gPCCiiigAooooAKKKKACiiigAooooAKKKKACu98EoVsrh8jEl0+B3G1FHNcFXong1NumI2T+8nncgjGOQnH5V8/xBK2Dt3aPcyON8VfsmdTRRRX58fchRRRQAUUUUAFFFFABRRRQAVDcDMZqamSjKMPagDxy9j8m8vYsAeXcTKAM4ADnGM81BWx4lg8nVZ2xxOkco+uNh/UVj1+sYSr7ahCp3SPzPFU/ZVpw7NhRRRXScwUUUUAFFFFABRRRQAUUUUAFFFFABVzS9Qm0u9gvIgGMeVdCcB0YYK5qnRUThGpFwkrplwnKElOLs0d1/wnlv8A9A2b/v8Ap/8AE0f8J5b/APQNm/7/AKf/ABNcLRXkf2Hgf5Pxf+Z6n9s4z+b8F/kd1/wnlv8A9A2b/v8Ap/8AE1i694kOsxW8CWxgijcyNucOzNjA5AHFc/RW1HKcJQmqlOOq83/mZVs0xNaDpzlo/JBXUaN4sbTLNLOe1adYi3kskgQhSc7TkH8K5eiuvE4WlioclZXRy4fE1MNPnpOzO6/4Ty3/AOgbN/3/AE/+Jo/4Ty3/AOgbN/3/AE/+JrhaK87+w8D/ACfi/wDM7/7Zxn834L/I7o+PIMHGmy5wcZnXGffC1xd1cSXdzc3MgAeeV5WC9AWOcCoaK7MLl+Hwjboxs35t/mcuJx1fFJKq72Cuu03xmbOzt7W4s3meBBGsiShdyLwNwYHmuRorTFYSji4qNZXSIw+Kq4aTlSdmzuv+E8t/+gbN/wB/0/8AiaP+E8t/+gbN/wB/0/8Aia4WivP/ALDwP8n4v/M7f7Zxn834L/I7eXx2hjkEWnOshUhC8ylQT3IC5riWZnZnb7zMWP1JyaSiu7C4GhhL+xja/r+pyYnGVsVb2rvYKKKK7DjCiiigAooooAKKKKACiiigAooooAKKKKACvUfDURi0vT1Oc+QrHODjeS/b615hFG00sMS/elkSNfqxC16/YRrHDGi9EVVX6KMDpXyfEtW0KdPu2/u0/U+n4fp+/Op5W/r7i5RRRXxR9cFFFFABRRRQAUUUUAFFFFABQRkGiigDhfGFmTHDdD/lg5R/9yTGD+BH61xlesavaJc280T/AHZUZGI6jPcfTrXlU0MlvNNBIMPE7I31HcV93w7ilUoOg94/k/8Agnxme4dwrKstpfmv+AMooor6Y+dCiiigAooooAKKKKACiiigAooooAKKKKACiiigAooooAKKKKACiiigAooooAKKKKACiiigAooooAKKKKACiiigAooooAKKKKACiiigAooooAKKKKANjw5bG41KJyDttlMx/wB77qj9c/hXqMK7UUe1cp4W08wWySOMSXBEz5HIUj5F/Ln8a68DAAr82znFLE4qXLtHRfLf8T9AynDuhhlfd6/18gooorxz1QooooAKKKKACiiigAooooAKKKKAI5UDoR7VwHifTGU/bI15jG2cAclM8P8Ah0P4eleh1naharKjfKDkEEEZBBGCDXZgsXLCVlVj0380cuLw0cVSdKX/AAzPI6K0tW017Cdiit9mkY+WeTsPXyyfbt6/hWbX6fQrQr01Vpu6Z+dVqM6E3TmrNBRRRWxiFFFFABRRRQAUUUUAFFFFABRRRQAUUUUAFFFFABRRRQAUUUUAFFFFABRRRQAUUUUAFFFFABRRRQAUUUUAFFFFABRRRQAUUUUAFFFFABWlo1gb67TcuYISry56N6J+Pf2qlb2811NHBEAXc4BPCqO7MfQV6LoumRWsUaIp2ryWYDc7HqzYrws5zFYSl7OD9+X4Lv8A5HtZTgHianPNe6vxfb/M2LKERxjjnFW6QAAAUtfnZ92FFFFABRRRQAUUUUAFFFFABRRRQAUUUUAFIwDAg0tFAGHqenJNHKpQMkilXUjr7/UdRXnupaZNYSEjc9ux+SQjlf8AZkxxn+f6D1xlDAgise/01ZFf5FZWGGVgCrDrgg16uXZlUwM9NYvdfqvM83H5fDGR10ktn/XQ8sord1DQZIi0loCQOWgY5Yf9c2PX6dfrWEQykqwIYHBBBBB9CDX6DhcZRxcOek7/AJr1PhsThauGly1Vb8mFFFFdZyhRRRQAUUUUAFFFFABRRRQAUUUUAFFFFABRRRQAUUUUAFFFFABRRRQAUUUUAFFFFABRRRQAUUUUAFFFFABRRRQAUUUUAFS29vcXUgigQu5GTjgKo6sxPardlpN3eFGIMUDc+Y45Yf8ATNe/8q7TS9HihRUjj2rwWY8u59WNeFmOc0sInCn70/wXr/ke1gMpqYlqc/dj+L9P8yHRdGjtkAA3O2DLIRy59B/sjt/nHVxRrGoAFJDCkSgAVLXwFatOtN1Kju2fb0qUKUFCCskFFFFZGgUUUUAFFFFABRRRQAUUUUAFFFFABRRRQAUUUUAFIQCMGlooAoXNjHKCQOa57UNFhmyZotxAKq6krIo9mH9c12FNaNHHIFaU6s6Uuem7PyIqU4VI8s1dHltzoFzHuNvIJAP4JPkf6A/d/UVmTWt3AcTQSJzjJU7SfZhx+teszafE+cAVQk0phnbn8K+hw/EWIp6VUpfg/wDL8Dwq+RUJ6024/iv6+Z5dS138+ixSZ8y2hc8jJjUHkY6gZqjJ4esju/0YqSMDY8gC9sgEmvWp8SYd/HFr7n+qPMnkFdfBJP70cdRXVN4ctNpAW4VuPm8wHH4FcUz/AIRy27vc/gY//ia6Fn+DfV/cYPJMWui+85iiun/4R20/vXf/AH1H/wDEUf8ACO2frd/99x//ABun/b+C/mf3MX9iYvsvvRzFFdK/hyE48uS4U99+x8/TAWo/+Eb/AOniT/v2P8apZ7gX9r8H/kS8lxn8v4o56iuh/wCEb/6eJP8Av2P8aP8AhG/+niT/AL9j/Gn/AG7gf5/wf+Qf2NjP5fxX+Zz1FdD/AMI3/wBPEn/fsf40f8I3/wBPEn/fsf40f27gf5/wf+Qf2NjP5fxX+Zz1FdD/AMI3/wBPEn/fsf40f8I3/wBPEn/fsf40f27gf5/wf+Qf2NjP5fxX+Zz1FdD/AMI3/wBPEn/fsf40f8I3/wBPEn/fsf40f27gf5/wf+Qf2NjP5fxX+Zz1FdD/AMI3/wBPEn/fsf40f8I3/wBPEn/fsf40f27gf5/wf+Qf2NjP5fxX+Zz1FdD/AMI3/wBPEn/fsf40f8I3/wBPEn/fsf40f27gf5/wf+Qf2NjP5fxX+Zz1FdD/AMI3/wBPEn/fsf40f8I3/wBPEn/fsf40f27gf5/wf+Qf2NjP5fxX+Zz1FdD/AMI3/wBPEn/fsf40f8I3/wBPEn/fsf40f27gf5/wf+Qf2NjP5fxX+Zz1FdGvhtQw3zSsvcKiqT9Cc/yqX/hHbP1u/wDvuP8A+N1Lz7BL7T+5jWS4x/ZX3o5eiun/AOEdtPW7/wC+4/8A4ij/AIRy17Ndf99R/wDxFL+38F/M/uY/7ExfZfejmKK6lPDlqCd32hwRwNyrg+uQtSp4cs8EGGVs9C0jZH024FRLiDBra7+RUcjxT3svmcjTkjllIWNHdj0CKWP5Cu4i0K2U5W0hBznLLv7Y/jzWlFpT4AwAPRQAPToK46vEtNfw6bfq7f5nXT4fm/4k18tf8jhoNF1CbBcJCp/56HL/APfC5P54resNAt4iG2GaTPDzAED/AHU6fzrqYdMjXGRV6OCOMcAV4WKznFYlcvNyrstPx3PZw2U4bDu9rvu/6sZ1rpqrhnHPHWtRI1QAAU6ivHPVCiiigAooooAKKKKACiiigAooooAKKKKACiiigAooooAKKKKACiiigAooooAKKKKAEKqe1NMUZ/hFPooAiNvEf4RSfZof7oqaigCD7LD/AHRR9lh/uj8qnooAg+yw/wB0flR9lh/uj8qnooAg+yw/3R+VH2WH+6PyqeigCD7LD/dH5UfZYf7o/Kp6KAIPssP90flR9lh/uj8qnooAg+yw/wB0flR9lh/uj8qnooAg+yw/3R+VH2WH+6PyqeigCD7LD/dH5UfZYf7o/Kp6KAIPssP90flR9lh/uj8qnooAg+yw/wB0flR9lh/uj8qnooAg+yw/3R+VH2WH+6PyqeigCD7LD/dFL9mh/uipqKAIvs8P90UohiH8IqSigBoRB2FOwPSiigAooooAKKKKACiiigAooooAKKKKACiiigAooooAKKKKACiiigAooooAKKKKACiiigAooooAKKKKACiiigAooooAKKKKACiiigAooooAKKKKACiiigAooooAKKKKACiiigAooooAKKKKACiiigAooooAKKKKACiiigAooooAKKKKACiiigAooooAKKKKACiiigAooooAKKKKACiiigAooooAKKKKACiiigAooooAKKKKACiiigAooooAKKKKACiiigAooooAKKKKACiiigAooooAKKKKACiiigAooooAKKKKACiiigAooooAKKKKACiiigAooooAKKKKACiiigAooooAKKKKACiiigAooooA/9k=;" vertex="1" parent="1">
                    <mxGeometry x="530" y="205" width="100" height="100" as="geometry"/>
                </mxCell>
                <mxCell id="8" value="" style="shape=image;imageAspect=0;aspect=fixed;verticalLabelPosition=bottom;verticalAlign=top;image=data:image/jpeg,/9j/4AAQSkZJRgABAQEAAAAAAAD/4QBCRXhpZgAATU0AKgAAAAgAAYdpAAQAAAABAAAAGgAAAAAAAkAAAAMAAAABAAAAAEABAAEAAAABAAAAAAAAAAAAAP/bAEMACwkJBwkJBwkJCQkLCQkJCQkJCwkLCwwLCwsMDRAMEQ4NDgwSGRIlGh0lHRkfHCkpFiU3NTYaKjI+LSkwGTshE//bAEMBBwgICwkLFQsLFSwdGR0sLCwsLCwsLCwsLCwsLCwsLCwsLCwsLCwsLCwsLCwsLCwsLCwsLCwsLCwsLCwsLCwsLP/AABEIAZABkAMBIgACEQEDEQH/xAAfAAABBQEBAQEBAQAAAAAAAAAAAQIDBAUGBwgJCgv/xAC1EAACAQMDAgQDBQUEBAAAAX0BAgMABBEFEiExQQYTUWEHInEUMoGRoQgjQrHBFVLR8CQzYnKCCQoWFxgZGiUmJygpKjQ1Njc4OTpDREVGR0hJSlNUVVZXWFlaY2RlZmdoaWpzdHV2d3h5eoOEhYaHiImKkpOUlZaXmJmaoqOkpaanqKmqsrO0tba3uLm6wsPExcbHyMnK0tPU1dbX2Nna4eLj5OXm5+jp6vHy8/T19vf4+fr/xAAfAQADAQEBAQEBAQEBAAAAAAAAAQIDBAUGBwgJCgv/xAC1EQACAQIEBAMEBwUEBAABAncAAQIDEQQFITEGEkFRB2FxEyIygQgUQpGhscEJIzNS8BVictEKFiQ04SXxFxgZGiYnKCkqNTY3ODk6Q0RFRkdISUpTVFVWV1hZWmNkZWZnaGlqc3R1dnd4eXqCg4SFhoeIiYqSk5SVlpeYmZqio6Slpqeoqaqys7S1tre4ubrCw8TFxsfIycrS09TV1tfY2dri4+Tl5ufo6ery8/T19vf4+fr/2gAMAwEAAhEDEQA/APXKKKKACiiigAooooAKKKKACiiigAooooAKKKKACiiigAooooAKKKKACiiigAooooAKKKKACiiigAooooAKKKKACiiigAooooAKKKKACiiigAooooAKKKKACiiigAooooAKKKKACiiigAooooAKKKKACiiigAooooAKKKKACiiigAooooAKKKKACiiigAooooAKKKKACiiigAooooAKKKKACiiigAooooAKKKKACiiigAooooAKKKKACiiigAooooAKKKKACiiigAooooAKKKKACiiigAooooAKKKKACiiigAooooAKKKKACiiigAooooAKKKKACiiigAooooAKKKKACiiigAooooAKKKKACiiigAooooAKKKKACiiigAooooAKKKKACiiigAooooAKKKKACiiigAooooAKKKKACiiigAooooAKKKKACiiigAooooAKKKguLu0tF33EqIO24jJPoBTUXJ2RMpKC5pOyJ6KxG8T6SrY2XJ91SPH6vV601TTr3AhlG8jPlvgPj6ZraWHqwXNKLsc1PG4epLlhNNl2iiisDrCiiigAooqKe4trZDJPKka+rED8qaTbshSkoq8nZEtFYj+JtJRioW5b3REI/VxVy01fTbwhY5drnokuFY/gCa3lhqsVzOLscsMbh5y5YzVy/RRRXOdYUUUUAFFFFABRRRQAUUUUAFFFFABRRRQAUUUUAFFFFABRRRQAUUUUAFFFFABRRRQAUUUUAFFFFABRRRQAUUUUAFFFFABRRRQBS1O/TT7V5jgyH5IlP8TmuCuLm4upWmncu7dz2HoB6VveKpCZ7OLPyrG7Ee5PWubr6XLqMYUlPqz4fOsVOpXdK/uxClVmUhlJDKQQRwQR3FJRXpnhnZ6Dqz3itbXDZnjXKMesie/uK3a8+0iVotRsWU43TLGfo52mvQa+YzCjGlV93Zn3eT4qWIoWnq46BRRRXnHsla+u47G2luH/AIRhF/vOegFcDd3lzezNNO5JJO1f4UHoorofFUrBbGHPyuZJCPdcAfzrla+jy2hGNP2nVnxWd4qU63sU9I/mFL05FJRXqngHW+H9XknP2K5fc4XMDt95gBkqTXR15vZSNFd2jqcFZ4vy3DIr0gHIB9Rmvmsxoxp1FKPU+3yXFSr0XCbu4/kFFFFeYe6FFFFABRRRQAUUUUAFFFFABRRRQAUUUUAFFFFABRRRQAUUUUAFFFFABRRRQAUUUUAFFFFABRRRQAUVHJcW0RxJNEh9HdVP5E0JcW0pxHNE59EdWP5A1XK7XsTzxva+pJRRRUlBRRRQBx/ij/j8t/8Arj/WufroPFH/AB+W/wD1x/rXP19bgv4ET87zP/e6nqFFFFdZ5xb07/j/ANP/AOvqD/0MV6LXnWnf8f8Ap/8A19Qf+hivRa+fzX44+h9hw/8Awp+oUUUV459Kcr4r/wBZp3+5P/Na5mum8V/6zTv9yf8AmtczX1eA/wB3j/XU/Ps2/wB8n8vyQUUUV2nlktv/AK+3/wCusf8A6EK9KX7q/wC6P5V5rb/6+3/66x/+hCvSl+6v+6P5V4Wbbx+Z9Zw9tU+X6i0UUV4h9SFFFNd44xud1QersFH5mjcTdtWOoqEXliTgXNuT6CVP8amyDyOh6U3FrdCjKMtncKKKKRQUUUUAFFFFABRRRQAUUUUAFFFFABRRRQAUUUUAFFFFABRRRQAUUUUAFcvrOvSK72lk20L8ssw6k9Cq/wBa3dSnNtY3kw6rGQPYt8oP6152SSSScknJJ7mvXy3DRqN1J62PnM7xs6KVGm7N6v0FZ3c7nZmPqxJP5mhXdDuRmVvVSQfzFNor6C3Q+Ou73N+w8R3UG2O7BmiHAbpIo+vQ11Nre2d6ge3lVuMlejr9VPNeb1JFNNA6yQyMjqcgqcGvOxGX06usNH+B7eDzmtQ92p70fx+89MorltP8TEbY79c9vOQc/VlFdLDPBcIJIZFdD3Ugj6HFeDWw9Sg7TR9bhcbRxSvTevbqcn4o/wCPy3/64/1rn66DxR/x+W//AFx/rXP19Lgv4ET4fM/97qeoUUUV1nnFvTv+P/T/APr6g/8AQxXotedad/x/6f8A9fUH/oYr0Wvn81+OPofYcP8A8KfqFFFFeOfSnK+K/wDWad/uT/zWuZrpvFf+s07/AHJ/5rXM19XgP93j/XU/Ps2/3yfy/JBRRRXaeWS2/wDr7f8A66x/+hCvSl+6v+6P5V5rb/6+3/66x/8AoQr0peFUn+6P5V4Wbbx+Z9Zw9tU+X6i013jjVnkZUReSzEAD6k1kX/iCytN0cP7+YcYU/Ip92rlLzUr6+YmaU7M/LGvCL7Yrlw+X1KustEehjM3o4f3Ye9Ly2+86K/8AEsMe6OyXzH6eY2Qg7cDqa5m4vLy6dnnmdyexOFH0UcVXor3qGFp0F7q17nyOKx9bFP8AePTt0CtPT9YvbFx87Swk/PG5z7ZUmsyitp041FyyV0c1KtOjLnpuzPS7e4huoY54W3JIMj2PcGpa5nwrcMVu7YkkLtlX2z8pArpq+SxNH2NRwP0TBYj6zQjV6sKKKK5zsCiiigAooooAKKKKACiiigAooooAKKKKACiiigAooooAKKKKAKeqQtcafexL1aIkf8BIf+leeV6fXI61oc0ckl1aIXiclpI15ZGPJIHpXsZbiIwvTl1Pms8wc6qVamr20foc7RS8jg0lfQHyAUUUUCCrFteXdm4e3lZD3A+6w9CKr0UpRUlZlRlKD5ouzL2o6hJqLwySIquibG2/dbnOQDVGiilCCguWOxVSpKrJzm7thRRRVGZb07/j/wBP/wCvqD/0MV6LXnWnf8f+n/8AX1B/6GK9Fr5/Nfjj6H2HD/8ACn6hRRRXjn0pyviv/Wad/uT/AM1rma6bxX/rNO/3J/5rXM19XgP93j/XU/Ps2/3yfy/JBRRRXaeWPjfZJG+M7HVseuDnFaF9rN/e/Jv8qHgCOPjOP7x61mUVnKnGUlKS1RtCtUhFwi7J7hRRRWhiFFFFABRRV6w0y81CQCJCIwRvlbIRR9fWpnOMFzSdkaU6c6slCCu2bXhWFs3lwfukLCPc/eNdRUFpaw2cEVvEMKg692J5JNT18jia3tqrmj9EwOH+rUI0nutwooornO0KKKKACiiigAooooAKKKKACiiigAooooAKKKKACiiigAooooAKKKKAMy/0SwvtzbfKmOf3kYHJ/wBod65O+0i/sSS6b4c8SR5K+2fSu/oIBBBAIIwQehFd+Hx1SjpujycZlVDE+8vdl3X6nl9Fdpf+HbO43SW2IJjk4A/dsfp2rlbuwvbJytxEQOdrjlGHqDXvUMXTr/C9ex8ji8ur4V3mrrutirRRRXWecFFFFABRRRQBb07/AI/9P/6+oP8A0MV6LXnWnf8AH/p//X1B/wChivRa+fzX44+h9hw//Cn6hRRRXjn0pyviv/Wad/uT/wA1rma6bxX/AKzTv9yf+a1zNfV4D/d4/wBdT8+zb/fJ/L8kFFFFdp5YUUUUAFFFPjjllZUjRndjgBRk80XtuNJt2Qyp7e1urpxHBE7sf7o4HuTW9p/hqR9sl8xRevlIfmPszdq6a3tra1jEcEaxoOyjGT6mvLxGZQp6U9X+B72DyWrW96t7q/H/AIBhaf4ahj2yXzCR+D5S/wCrH1PeugRI41VI1VUUYCqMAD6CnUV4NavUrO82fWYfCUsNHlpK35hRRRWJ1BRRRQAUUUUAFFFFABRRRQAUUUUAFFFFABRRRQAUUUUAFFFQXd1BZwvPM2EXoO7HsBTjFydkTKSgnKTskT0VxN54i1C4ZlgIgi6ALgufctVAajqYbcLu4znPMjEfkTivVhldRq8mkeBUz6hGVoxbXc9Forj7LxLdREJdqJo/7ygLIB/I11Fre2d4ge3lV/VejD6g81x18LVofEtO56WFzChivgevZ7liiiiuU7wpskcUyNHKiujdVcAg/gadRQnbVCaTVmc1f+GY23SWLbW6+U5yp7/K1czPb3Fs5jnieNx2YfyPSvS6hubW1u0MdxErqRxkfMP909a9XD5lOGlTVfieDjMkpVfeo+6/w/4B5rRXR3/hqaLdJZMZU6+W3Dj6HpXPOkkbFHVlYdQwII/A17tKvTrK8GfJ4jC1cNLlqq35DaKKUAkgDkngYrY5i7pUbSajYBQTtnRzj0Q7jXoVc94e0qS3BvLhdsrrtiU9VU9SfrXQ18zmNaNSraPQ+5ybDSoULz0cncKKKK809s5jxXGxFjLg7V81Ce2WwR/KuWr0XULJL+1lt24J+aNv7rjoa4C4tp7WV4Z0Kupxz0I9Qa+ky2tGVL2fVHxOd4aUK/tukvzIaKKK9Q8AKUAsQACSegAyTWnYaLf3xDbfKh7ySAjP+6OtdXYaPYWADInmS95ZAC2f9kdBXDiMdTo6bs9bB5VXxPvW5Y93+hzmn+Hry62yXGYITyARmRh7Cuqs9PsrFdtvEAe7nl2+rHmrVFeBXxdSv8T07H12Ey6hhVeKu+73CiiiuQ9EKKKKACiq91e2dmhe4lVPRerH6Ac1zF74lupSUtFEMf8AeYBpCP5Cuqhhatf4Vp3ODFZhQwvxvXstzr6K86Oo6mW3G7uM5zxIwH5A4q/Z+ItQt2VZyJ4uhDYDj3DV2TyuqleLTPNp59QlK04tLudtRUFrdW95Ck8DZRuo7qe4NT15UouLsz34yU0pRd0wooopFBRRRQAUUUUAFFFFABRRRQAUUUUAFcV4hvWuLwwKT5VtuTH/AE0zhia7WvPdWjePUb8MMb7iaRf91nJFerlcU6rb6I+fz6co0FFbN6lGiiivoz4oKkimmgcSQyOjjoUJB+hxUdFJq+jGm07o6iw8TEbY79c9B5yDn6so/pXSQzQToskMiujAEFTnr615nVi1vLuzcSW8rIe4HKt9QeK8vEZbCetPR/gfQYPO6lL3a3vLv1/4J6RRWBYeJLabbHdr5Mh43jJjY/zFbysjqrIwZWGQykEEexFeFVozou01Y+rw+KpYmPNSlcWiiisTpCqt3p1hejFxCrN2cfK4/wCBDmrVFVGUou8XZkThGouWaujnz4WsCciecD0+Q/zFX7TRdMsyHSLfIP45fmP4A8fpWjRW8sVWmrSkzlp4DDU5c0YK4VFPcW9tG0s8iog6lv6CkurqCzheeZgqKPxY+gFcJqWpT6jMXclYlJEUeeFHqfetcJhJYh32RhmGYwwcbLWT2X+Z1v8Ab+if8/J/79S//E1fguLe6jEsEiuh7r/Uda80q9p2o3GnTB0JaNsCWPPDD/GvQq5XHlvTbv5njYfPpuaVZLl8j0Kq91ZWd4uy4iVx2J4YfRhzS2l3b3kKTwNlW6jup9CKnrxPepy7NH1PuVodGmYD+F9PZsrNOg9BtP8AMVbtdB0u1IfyzK46NLyP++en6VqUVtLF1pKzkzlhl+GhLmjBXAAAAAYA4AFFFFcx3BRRRQAUUjMiKzOwVVGWZiAAPcmsC/8AEltDujs1E0g43nIjU+3c1tSozrO0Fc5sRiqWGjzVZWNyaaCBGkmkVEUEkscdPSubv/ExO6OwXHUec45+qqf61z91eXd45kuJWc9geFX6AcVXr3cPlsIa1NX+B8pjM7qVfdo+6vx/4BJLNNO5kmkd3PUuST9Bmo6KK9RK2iPn223dhRRRTEbfh69a3vBAT+6udqYz/HnAIrta890mN5NRsAozsuIZG/3VcE16FXzmaRSqprqj7XIZylQcXsnoFFFFeUfQBRRRQAUUUUAFFFFABRRRQAUUUUAFYHiDSnukF3brmaJcSKOroOePcVv0VrRqyozU4nPicPDE03SnszzAggkEYIOCD2NJXe3+i2F9ufb5U5HEkfGT/tCuTvtIv7AlnTfD2ljBK4/2vSvpsPjadbTZ9j4fGZXXwutrx7r9TOooortPKCiiigAq9Zapf2DDypCY88xPkoao0VM4RmuWSujSnUnSlzQdmdzYa9YXm1JD5Ex42uflY/7LdK168wrVsNcv7LajN50A/gc8gf7LV4uIyz7VH7j6bB579nEr5r9Ud1RVOw1Kz1BC0LYdQN8bcOv4elXK8WUJQfLJWZ9RTqRqxU4O6YVDdXVvZwvPOwVFH4sfQCi6uYLSGSeZsIg/EnsBXCalqVxqMxdyViUkRRjoo9T712YTCSxErv4UebmOYxwcbLWT2X6sNS1K41GYu5KxKSIo88KPU+9UKKs2dncX0ywwLkn7xP3UX1NfTJQpQstEj4aUqmIqXesmVqK7MeGdO8jyy0nnbf8AW5/ix6elcre2VxYzNDMuCOVYfddfUVjRxdOu3GD1OnFZfXwsVKotGS6dqNxp0wdCTGxAljzww/xru7S7t7yFJ4GyrDkd1PoRXm1XtO1G406YOhJjYgSxnow/xrDGYNV1zR+L8zryzM3hX7OprB/gehUVBa3UF5Ck8LZRh+KnuDU9fMyTi7M+4jJTSlF3TCiiqV/qVnp6Bpmy7D5I1++34elOEJTfLFXYqlSNKLnN2SLtZF/r1jZ7kjPnzDjah+VT/tN0rm7/AFy/vdyK3kwH+CM8kf7TVl17eHyz7VZ/I+Xxme/Zw6+b/RF291S/v2PnSER9o0yEH4VRoor2YwjBcsVZHzNSpOrLmm7sKKKKozCiiigApQCSABkk4AHc1oWOkX9+QyJsh7yyAhcf7PrXWWGi2Fjtfb5s4HMknOD/ALIrixGNp0dN32PVweV18Vra0e7/AEKfh/SntUN3cLiaVcRqeqIeefc1v0UV8zWqyrTc5H3GGw8MNTVKGyCiiisjoCiiigAooooAKKKKACiiigAooooAKKKKACggMCCAQeoPIoooAw7/AMO2dxuktsQS9cAfu2P0rlbuwvbJ9txEVyflYco2PQ16NUNybQQyfavL8nHz+bjbj8a9PD4+pT92XvL8Tw8blFCsnOHuv8DzWir2pf2X55/s8SeXzu3/AHd2f4PaqNfRwlzRTtY+KqQ5JON727BRRRVGYUUUUAT2tzNaTxTxMQyMCcdGHcGvRLeZLiCGdPuyor/TIzivNK7zQN/9l2m7OcyYz6bzivGzWmuRT67H02QVpe0lS6WuUvFRP2S0GeDcHPv8hrkK7/WNPOoWvlocSxt5kWehbGMGuDlilhkeKRSroSGU9QRWuW1IulyLdHPnlKccR7RrR2GV32i2ttb2Nu0QUtMgkkcdWJ964GtrRtZexcQTktasfqYye49vWtcfRnVpWh0/EwynE0sPXvV66X7HbVnaxa21xY3BmCgxRtJG56owHrV3z7cxed5qeVt378jbtxnNcdrOsves1vAStqp5PQykdz7V4eDoVKlROOlup9VmWKo0aDU9eZaLuYlFFPjjkldI41LO5AVV5JJr6vbc/P0m3ZHV+FSfs16M8CZMe3y10VZujac2n2pRzmWVhJLjoDjAArSr5DFzjOtKUdj9Gy+nKlhoQnukRXEyW8E07/diRnx64GQK87urma7nlnlYlnJPPYdgK7XXt/8AZd3tzn93nHpvGa4OvWyqmuRz67Hz2f1pe0jS6WuFFFFeyfMhRRRQAUUVe03+y/PH9oeZ5fG3b93Of4/apnLli5WuaU4e0ko3tfuR2lhe3r7beItg/Mx4Rc+prqrDw7Z2+2S5xPL1wR+7U/Sta2NoYY/svl+Tj5PKxtx+FTV83iMwqVPdj7q/E+1wWUUKKU5+8/wAAKAAAAOgHAooorzT3AooooAKKKKACiiigAooooAKKKKACiiigAooooAKKKKACkLKoJYgAdSTgD86y9Q1yxstyKfOnH8CHgH/AGmrlL7Vr+/JEj7Yu0ScLj39a78PgalbV6I8jGZtRw14r3pdl+rOiv8AxHa2+6O0Anl6buka/j3rlru+vL199xKzYPyr0Rf91arUV79DCU6HwrXufI4vMK+KfvvTstgooorqPPCiiigAopeTwOta2n6DfXm15B5EB53OPmYf7K1nUqwpLmm7G9GhUry5KauyhaWs15PFBEpLOeSOir3Jr0SCFLeGGFPuxIqD3wMZqCx0600+PZAvzN9+RuXb8fSrdfN43F/WJJR2R9tleX/U4uU/if4BWTq+kRaghkjAW6QfK3ZwP4WrWorjp1JUpKUXqelWowrwdOorpnmUsUsMjxSqVdCQynqDTK7rV9Ii1CMyRgLdIPlbs4H8LVxEsUsMjxSqVdCQytwQa+pwuKjiI3W/VHwOPwE8HOz1i9mHmS7PL3tsznbk7c/SmUU+OOSV0jjUs7kBVUZJJrq0WpwaydgjjkldI41LO5AVV5JJrttH0eOwQSygNdOPmPUID/CtGj6PHYIJZQGunHzHqIwf4VrXr57G432n7unt+Z9lleVqglWrL3ui7f8ABCiiivJPoSO4hS4hmhf7sqMh9sjGa86u7WaznlglUhkJwT0ZexFek1TvtOtNQjCTr8y/ckXh1/H0r0MFi/q8mpbM8fNMv+uRUofEvxPO6K19Q0K+s9zoDNAOdyD5lH+0tZPTg19JTqQqLmg7nxFahUoS5KisxKKKK0MQooooAs2l9eWT77eVlz95eqN/vLXVaf4jtbjbHdAQS9N3WNj9e1cZRXLXwlOv8S17noYTMK+FfuPTs9j08MrAFSCD0IOQfypa8/sdWv7AgRvui7xPyuPb0rq9P1yxvdqMfJnP8Dngn/ZavAxGBqUdVqj67B5tRxNov3Zdn+jNWiiiuA9cKKKKACiiigAooooAKKKKACiiigAooooAK5/xDqj2yizgbEsq5kYcFEPGB7mugrz3VZHk1G/LHO24mjX2VXIFejl1FVat5dDxc5xMqFC0NHLQpEkkk8k8nNJRRX058KFFFFAgooqza2V5evst4mf1boq/VjxSlJRV5MuEJTfLFXZWq/Y6Vf37Dy4ysXeWTIQfTua6PT/Dlrb7ZLoieUchf+Wan1x3rdVVUBVUKoGAFAAA9gK8fEZml7tLXzPo8Hkcpe9iHZdupl2GhWFltdh50w6vIAQD/sr0rVoorxKlSdR803c+po0KdCPJTVkFFFMklihUvK6Io7uQB+tQlfRGraSux9FZTeINFU4+0E4/uxyEfyqe31bS7ptkNwu/+64KH8NwFavD1UruL+4544uhJ8sZq/qi9WXqujwaiodSI7hRhXxww9GxWpRU06kqcuaDszStRhXg4VFdM5D/AIRW/wD+fi2/8if/ABNbWlaNBpwMjESXDDBfHCj0TNatFdFXG1qseWT0OKhleGoT54R1CiimySRRKXldUQdWcgD9a499j0W0ldjqKyZPEGjoSBMzkcHYjY/MipbfWtJuWCJcBXPaQFP1bit3h6qV3F/ccyxmHlLlU1f1NGigEHBHIPIxRWB1BWTf6FYXu51HkzH+OMYUn/aXpWtRWlOpOm+aDsY1qFOvHkqK6PPr7Sr+wY+ZGWi7SxglD9e4qhXp7KrAqyhlIwQwBBHuDWFf+HLW43SWpEMp5K9Y2P07V7eHzNP3aunmfLYzI5R97Du67dTjaKs3VleWT7LiJk9G6q30YcVWr2IyUleLPnJQlB8slZhRRRTIClBIII4I5GKSigZ2Hh/VXuVNncNuliXMbnq6DjB9xXQV57pUjx6jYFTjdcQxt7qzgGvQq+YzGjGlVvHqfdZNiZV6Fp6uOgUUUV5x7QUUUUAFFFFABRRRQAUUUUAFFFFABXFeIrJre7M6j91c7mz6SZyQa7Wobq1gvIXgnXcjfmD2IrrwmI9hU5unU8/MMH9bouC36HmtFbl54c1CBma3xPF1GMBx7FaoDS9VLbfsdxnOMmNgPzPFfTQxFKaupI+FqYOvTlyyg/uKVSwwT3DiOGN5HPZATx6nFbtl4ZuZCr3jiJOuxCC5H16CuntrO0tECW8SoO5A+Yn1JPNcdfMadPSGr/A9LCZLWre9V91fic/YeGQNsl+2eh8lDx9GYf0rpIooYUWOJFRFAACjAwKfRXg1sRUrO82fW4bB0cKrU18+oUUUVgdYUEhQSxAAGSScAD3JrMv9asLHchbzZh/yzjOcH/aPQVyd9q9/fEh3KRdooyQv49678PgalbXZHk4zNaOG91e9Lsv1Oiv/ABFaW26O2AnlGRuziNT9R1/CuVur68vXL3ErN6L0Vfoo4qtRXv0MJTofCte58hi8wrYp++9Oy2ClBIII4I5BHakorqOA6vw/q8krCxuW3Ng+Q7Hkgfwk/wAq6WvN7Jyl5ZuDgrPEf/HhXpA5APqK+azKjGnUUo9T7fJMTOtRcJu7j+QUUUV5h7pFcTxW0Es8pwkalj6n2FcDqGo3WoSs8jERgny4wflUfT1rpPFErLZwxg4EkwLe4UHiuOr6DLKEVD2r3Z8dnmKm6nsE9Fv5hRRRXsHzZqWGtX9iQu/zYe8cpJx9D1rqrHWdPvgFV/Lm7xSHB/A9DXA0oJBBBII6EcEVw4jA0q2uzPWwma18N7t7x7P9D0+iuJsPEF7abUmzPCMDDH51A/ut/jXU2Wp2F+B5Mg345jbhx68GvBr4OrQ1auu59bhMyoYrSLs+z/rUu0UUVxnpDJYoZkaOVFdGBBDDPBrm7/wyDuksGx1PkuePorH+tdPRW9HEVKLvBnJicHRxStUXz6nmk0E9u5jmjeNx2cEceozUVek3NnaXaFLiJXHYkfMD6gjmuYvfDNzGWezcSp/ccgOB9ehr3qGY06mk9H+B8li8lrUfepe8vxOdoq4dL1UNt+x3Gc4yI2I/McVoWfhzUJ2VrjEEXU5wXPsFrsniKUFdyR5tPB16kuWMH9wnh2ya4uxOw/dW21s+smcgCu1qG1tYLOFIIF2ov5k9yamr5jFYj29Tm6dD7rL8H9UoqD36hRRRXKegFFFFABRRRQAUUUUAFFFFABRRRQAUUUUAFFFFABRRRQAUVFPcW9shknkSNB3Y4yfQVzOoeJZH3R2ClF5BlcfMf91e1dNHDVK79xfM4sVjqOFV6j17dToLzULKxXdcSAMfuovLt9FrldQ8QXl1ujgzBAeMD/WMOnzNWPJJLK7PI7O7ElmY5JJple9h8vp0tZas+RxmcVsR7sPdj+P3ikkkkkknqTyaSiivRPGCiiigQUUUUATWv/Hzbf8AXaP/ANCFekr91foK82tf+Pm2/wCu0f8A6EK9JX7q/QV4Obbx+Z9bw98NT5C0UUV4p9Qc54q/1Fp/10b+VclXW+Kv9Raf9dG/lXJV9Rl38BHwWc/73L5fkFFFFegeOFFFFABTlZ0YMjFWHQqSCPyptFA9joLDxJcw7Y7wGaPpvHEg+vY11Fre2d6m+3lV+Mlejr/vL1rzepIppoHWSGRkdTkMpwRXmYjLqdTWGj/A9vCZzWoWjU96P4/eemUVyth4mZdsd8u4dPNjHP8AwJa6WC4t7lBJBIkiHjKnOD6GvCrYapQfvo+swuOo4pXpvXt1JaKKK5ztCiiigAooooAKKKKACiiigAooooAKKKKACiiigAooooAKKKKACiiigArO1bU49Ng3YDTyZESf+zH2FaNcN4hmeTUp1JysIREHoNoY124Kgq1W0tlqeXmmKlhaHNDd6IoXN3dXkhkuJGducA/dUeiiq9FFfVKKirI+AlJzfNJ3YUUUUyQoopyI8jBEVmYnACjJP5UD32G0VoXWlXlnax3NwAhklEax/wAYypOW/Ks+ohOM1eLuaVKU6T5ZqzCiiirMia1/4+bb/rtH/wChCvSV+6v0FebWv/Hzbf8AXaP/ANCFekr91foK8HNt4/M+t4e+Gp8haKKK8U+oOc8Vf6i0/wCujfyrkq63xV/qLT/ro38q5KvqMu/gI+Czn/e5fL8gooor0DxwoorSn0a/igiuUTzYXQPmPlkB/vColUjBpSdrmsKU6ibgr23M2il5HB60lWZhRRRQIKntrq6tJBJbysjDrg8EehFQUUmlJWZUZOL5ouzO90jVY9RiIYBbiMDzEHQj+8vtWnXn+j3DW2oWrg8O/lMOxD/LXoFfL47DqhU93Zn3uVYyWKo3n8S0CiiiuA9YKKKKACiiigAooooAKKKKACiiigAooooAKKKKACiiigAooooAK4bxBE8epzsQQsoR0PqNoBruazdW0xNShABCzxZMTHpz1U+1duBrqjVvLZ6Hl5phZYqhyw3WqOBoqe4tLq1do54nQg4yR8p+h6VBX1Sakro+AlFxfLJWYUvJ4HU9KvWWk398w8uMpH3lkBCD+prrLDQ7Cy2uw86cfxyDIH+6vSuPEY2nR0bu+x6WDyyvitUrR7v9O5zmn6De3m2SUGCA87mHzsP9lf8AGusstNsbBQIYxv8A4pG5c/iauUV4GIxlSvo3Zdj6/CZbQwusVeXd/wBaGB4p/wCPK2/6+V/9AauOrsfFP/Hlbf8AXyv/AKA1cdXt5b/AXqz5bO/97fogooor0TxSa1/4+bb/AK7R/wDoQr0lfur9BXm1r/x823/XaP8A9CFekr91foK8HNt4/M+t4e+Gp8haKKK8U+oOc8Vf6i0/66N/KuSrrfFX+otP+ujfyrkq+oy7+Aj4LOf97l8vyCiiivQPHCvRtP8A+PKy/wCuKfyrzmvRtP8A+PKy/wCuKfyrx81+CPqfS8P/AMSfoVb/AEPT73cwXyZj/wAtIwBk/wC0vQ1yt9o+oWJJZPMhzxJHyPxHX9K76ggEEEAgjBB5BFedh8dVo6bo9rF5TQxPvJcsu6/U8vortr/w9ZXW6SD9xMcn5R+7Y+6jp+FcteaZf2TETRNt5xIgLIR65Fe9QxlKvs7PsfJYvLa+F1krruilRRU9va3V06pBE7knHA4H1PSuptRV2efGLk7RV2WdIt2uNQtFAOEcSMR2CfNzXoFZej6UmnRMzkNcSgeYw6KP7q1qV8vjsQq1T3dkfeZTg5YWj7+71CiiiuA9cKKKKACiiigAooooAKKKKACiiigAooooAKKKKACiiigAooooAKKKKAGvHFKNskaOPR1DD8jUC2GnKdwtYM/9c1P8xVmiqUpLRMiVOEndoAAoAAAA4AAwB+AoooqSwooooAwPFP8Ax5W3/Xyv/oDVx1dj4p/48rb/AK+V/wDQGrjq+ny3+AvVnwmd/wC9v0QUUUV6J4pNa/8AHzbf9do//QhXpK/dX6CvNrX/AI+bb/rtH/6EK9JX7q/QV4Obbx+Z9bw98NT5C0UUV4p9Qc54q/1Fp/10b+VclXW+Kv8AUWn/AF0b+VclX1GXfwEfBZz/AL3L5fkFFFFegeOFejaf/wAeVl/1xT+Vec16Np//AB5WX/XFP5V4+a/BH1PpeH/4k/QtUUUV8+fYBSFVYFWAKnggjIP1BpaKAKxsNOY7jawZ/wCua/4VOkcUY2xxog9EUKPyFOoqnKT0bIjThF3irBRRRUlhRRRQAUUUUAFFFFABRRRQAUUUUAFFFFABRRRQAUUUUAFFFFABRRRQAUUUUAFFFFABRRRQAUUUUAYfiaNn09GUcRTo7ew2sv8AWuLr0yeGO4hlgkGUkUqw+veuA1DT7nT5mjkBMZJ8qQD5XX/H1r6DLK0XD2T3Pj89ws1UVdLR6PyKVFFFewfNFiyUvd2aDq08Q/8AHhXpA4AHoBXM+H9IkjYX1ym07T5CMOef4yD+ldNXzeZVo1KijHofb5Jhp0aLnNW5vyCiiivLPeMDxREzWcMgGRHMA3sGB5rjq9LubeO6gmgkGUkUqfb0IrgL/T7rT5jHKp2kny5APlceor6DLK8XD2T3R8dnmFmqvt0tHv5Mp0UUV7B82KASQAMknAHvXpNohjtrVD1WJAfriuV0LR5ZpY7u4QrBGQ8YYYMjDkEewrsK+fzOvGclTj0Psciws6cZVZq3NsFFFFeOfSBRRRQAUUUUAFFFFABRRRQAUUUUAFFFFABRRRQAUUUUAFFFFABRRRQAUUUUAFFFFABRRRQAUUUUAFFFFABRRRQAUUUUAFMlhgnRo5o1dD1DjIp9FNNp3Qmk1ZmLJ4a0mRiwNxHn+GN0Cj6BkNWbXRdLtGDpEXcHKtNtZgfbAFaNFbyxNaS5XJ2OSOBw8Jc8YK4UUUVznYFFFFABTJYYZ0aOaNXRhgqwBFPopptaoTSaszGl8N6TIxYefHn+GJkCj8GU1NbaFpVswYRtIwIKmYq2CO4wBWnRW7xNZrlcmckcDhoy5lBX9AAA4AwB6UUUVznYFFFFABRRRQAUUUUAFFFFABRRRQAUUUUAFFFFABRRRQAUUUUAFFFFABRRRQAUUUUAFFFFABRRRQAUUUUAFFFFABRRRQAUUUUAFFFFABRRRQAUUUUAFFFFABRRRQAUUUUAFFFFABRRRQAUUUUAFFFFABRRRQAUUUUAFFFFABRRRQAUUUUAFFFFABRRRQAUUUUAFFFFABRRRQAUUUUAFFFFABRRRQAUUUUAFFFFABRRRQAUUUUAFFFFABRRRQAUUUUAFFFFABRRRQAUUUUAFFFFABRRRQAUUUUAFFFFABRRRQAUUUUAFFFFABRRRQAUUUUAFFFFABRRRQAUUUUAFFFFABRRRQAUUUUAFFFFABRRRQAUUUUAFFFFABRRRQAUUUUAFFFFABRRRQAUUUUAFFFFABRRRQAUUUUAFFFFABRRRQAUUUUAFFFFABRRRQAUUUUAf//Z;" vertex="1" parent="1">
                    <mxGeometry x="810" y="205" width="100" height="100" as="geometry"/>
                </mxCell>
                <mxCell id="9" value="UNLOAD(JSON)" style="shape=flexArrow;endArrow=classic;html=1;" edge="1" parent="1">
                    <mxGeometry width="50" height="50" relative="1" as="geometry">
                        <mxPoint x="245.1" y="440" as="sourcePoint"/>
                        <mxPoint x="245.1" y="350" as="targetPoint"/>
                    </mxGeometry>
                </mxCell>
                <mxCell id="10" value="" style="shape=flexArrow;endArrow=classic;html=1;" edge="1" parent="1">
                    <mxGeometry width="50" height="50" relative="1" as="geometry">
                        <mxPoint x="390" y="255" as="sourcePoint"/>
                        <mxPoint x="510" y="255" as="targetPoint"/>
                    </mxGeometry>
                </mxCell>
                <mxCell id="11" value="" style="shape=flexArrow;endArrow=classic;html=1;" edge="1" parent="1">
                    <mxGeometry width="50" height="50" relative="1" as="geometry">
                        <mxPoint x="680" y="254.5" as="sourcePoint"/>
                        <mxPoint x="780" y="255" as="targetPoint"/>
                    </mxGeometry>
                </mxCell>
                <mxCell id="12" value="DBMS" style="shape=cylinder3;whiteSpace=wrap;html=1;boundedLbl=1;backgroundOutline=1;size=15;" vertex="1" parent="1">
                    <mxGeometry x="216" y="710" width="60" height="80" as="geometry"/>
                </mxCell>
                <mxCell id="13" value="" style="shape=flexArrow;endArrow=classic;html=1;" edge="1" parent="1">
                    <mxGeometry width="50" height="50" relative="1" as="geometry">
                        <mxPoint x="245.1" y="684.5" as="sourcePoint"/>
                        <mxPoint x="245.1" y="584.5" as="targetPoint"/>
                    </mxGeometry>
                </mxCell>
                <mxCell id="14" value="" style="verticalLabelPosition=bottom;html=1;verticalAlign=top;align=center;strokeColor=none;fillColor=#00BEF2;shape=mxgraph.azure.code_file;pointerEvents=1;" vertex="1" parent="1">
                    <mxGeometry x="190" y="250" width="50" height="55" as="geometry"/>
                </mxCell>
                <mxCell id="15" value="Primary Key&lt;br&gt;Date Format" style="shape=note2;boundedLbl=1;whiteSpace=wrap;html=1;size=25;verticalAlign=top;align=center;" vertex="1" parent="1">
                    <mxGeometry x="400" y="330" width="120" height="95" as="geometry"/>
                </mxCell>
                <mxCell id="16" value="" style="shape=flexArrow;endArrow=classic;html=1;" edge="1" parent="1">
                    <mxGeometry width="50" height="50" relative="1" as="geometry">
                        <mxPoint x="300" y="750" as="sourcePoint"/>
                        <mxPoint x="579.9999999999999" y="330" as="targetPoint"/>
                        <Array as="points">
                            <mxPoint x="580" y="750"/>
                        </Array>
                    </mxGeometry>
                </mxCell>
            </root>
        </mxGraphModel>
    </diagram>
</mxfile>